<svg width="118" height="135" viewBox="0 0 118 135" fill="none" xmlns="http://www.w3.org/2000/svg">
<path fill-rule="evenodd" clip-rule="evenodd" d="M117.498 65.7441C117.498 81.3252 111.308 96.2682 100.291 107.286C89.2732 118.303 58.7491 133.533 58.7491 133.533C58.7491 133.533 28.2249 118.303 17.2075 107.286C6.20998 96.2882 0.110809 81.2574 0 65.7441V0H117.498V65.7441Z" fill="#FA1943"/>
<path fill-rule="evenodd" clip-rule="evenodd" d="M117.498 66.6632C117.498 82.2443 111.308 97.1872 100.291 108.205C89.2732 119.222 58.7491 134.452 58.7491 134.452C58.7491 134.452 28.2249 119.222 17.2075 108.205C6.20998 97.2072 0.110809 82.1765 0 66.6632V0.919067H117.498V66.6632Z" fill="#FA1943"/>
<rect x="16.9688" y="49.4823" width="83.5497" height="9.2833" fill="white"/>
<path d="M95.8758 58.7633C95.8758 48.915 91.9635 39.47 84.9997 32.5062C78.0359 25.5424 68.5909 21.6301 58.7426 21.6301C48.8942 21.6301 39.4493 25.5424 32.4854 32.5062C25.5216 39.47 21.6094 48.915 21.6094 58.7633L58.7426 58.7633H95.8758Z" fill="white"/>
<path d="M40.1793 58.7637C40.1793 63.6879 42.1354 68.4104 45.6173 71.8923C49.0993 75.3742 53.8217 77.3303 58.7459 77.3303C63.6701 77.3303 68.3926 75.3742 71.8745 71.8923C75.3564 68.4104 77.3125 63.6879 77.3125 58.7637L58.7459 58.7637L40.1793 58.7637Z" fill="#FA1943"/>
<path d="M70.3486 14.6689V51.8027H47.1406V49.4814L47.1396 16.9902V14.6689H70.3486Z" fill="white" stroke="#FA1943" stroke-width="4.64165"/>
<path d="M76.1484 49.4822L76.1484 58.7655L41.3361 58.7655L41.3361 49.4822L76.1484 49.4822Z" fill="white"/>
<rect x="16.9688" y="56.4442" width="83.5497" height="4.64165" fill="#FA1943"/>
<path d="M54.6553 95.0845H37.1885V54.4458L38.7744 53.9175L51.6025 49.6411L54.6553 48.6235V95.0845Z" fill="white" stroke="#FA1943" stroke-width="4.63839"/>
<mask id="path-10-outside-1_438_821" maskUnits="userSpaceOnUse" x="47.3359" y="32.0129" width="23" height="66" fill="black">
<rect fill="white" x="47.3359" y="32.0129" width="23" height="66"/>
<path d="M65.1641 92.7659H58.7539V53.9788L52.3398 51.8401V92.7659H52.3359V43.2893L65.1641 39.0129V92.7659Z"/>
</mask>
<path d="M65.1641 92.7659H58.7539V53.9788L52.3398 51.8401V92.7659H52.3359V43.2893L65.1641 39.0129V92.7659Z" fill="white"/>
<path d="M65.1641 92.7659V97.4043H69.8025V92.7659H65.1641ZM58.7539 92.7659H54.1155V97.4043H58.7539V92.7659ZM58.7539 53.9788H63.3923V50.6359L60.2211 49.5785L58.7539 53.9788ZM52.3398 51.8401L53.807 47.4399L47.7015 45.404V51.8401H52.3398ZM52.3398 92.7659V97.4043H56.9782V92.7659H52.3398ZM52.3359 92.7659H47.6975V97.4043H52.3359V92.7659ZM52.3359 43.2893L50.869 38.889L47.6975 39.9462V43.2893H52.3359ZM65.1641 39.0129H69.8025V32.5774L63.6972 34.6126L65.1641 39.0129ZM65.1641 92.7659V88.1275H58.7539V92.7659V97.4043H65.1641V92.7659ZM58.7539 92.7659H63.3923V53.9788H58.7539H54.1155V92.7659H58.7539ZM58.7539 53.9788L60.2211 49.5785L53.807 47.4399L52.3398 51.8401L50.8727 56.2403L57.2867 58.379L58.7539 53.9788ZM52.3398 51.8401H47.7015V92.7659H52.3398H56.9782V51.8401H52.3398ZM52.3398 92.7659V88.1275H52.3359V92.7659V97.4043H52.3398V92.7659ZM52.3359 92.7659H56.9743V43.2893H52.3359H47.6975V92.7659H52.3359ZM52.3359 43.2893L53.8028 47.6896L66.631 43.4133L65.1641 39.0129L63.6972 34.6126L50.869 38.889L52.3359 43.2893ZM65.1641 39.0129H60.5257V92.7659H65.1641H69.8025V39.0129H65.1641Z" fill="#FA1943" mask="url(#path-10-outside-1_438_821)"/>
<path d="M69.2588 95.0845H80.3115V52.3081L78.7256 51.7788L72.3115 49.6411L69.2588 48.6235V95.0845Z" fill="white" stroke="#FA1943" stroke-width="4.63839"/>
<path d="M100.527 65.9084C100.45 67.5662 100.274 69.2258 99.9961 70.8782L92.4395 71.6057C91.9838 73.6014 91.3446 75.5773 90.5156 77.509L96.1982 82.5364C95.8132 83.3092 95.4024 84.0754 94.9648 84.8333C94.5273 85.5911 94.0695 86.3303 93.5928 87.05L86.3965 84.6418C85.1381 86.3254 83.7474 87.8666 82.2471 89.259L85.3955 96.1682C84.0492 97.2805 82.6399 98.3008 81.1797 99.2268L75.5811 94.0969C73.7656 95.1074 71.8671 95.9496 69.9111 96.6165L69.9766 104.206C68.3029 104.673 66.6005 105.035 64.8799 105.291L61.8535 98.3313C59.7986 98.5184 57.7204 98.523 55.6455 98.3372L52.6182 105.301C50.911 105.048 49.2096 104.688 47.5244 104.217L47.5908 96.6233C45.6619 95.9626 43.7652 95.1217 41.9238 94.094L36.3271 99.2219C34.8415 98.2796 33.4346 97.2566 32.1084 96.1633L35.2559 89.2581C33.7181 87.8345 32.3304 86.2881 31.0996 84.6438L23.9014 87.052C22.9383 85.5983 22.0704 84.0903 21.3008 82.5383L26.9873 77.5071C26.1736 75.6 25.532 73.6246 25.0713 71.6067L17.5156 70.8791C17.2378 69.2374 17.0583 67.5774 16.9775 65.9084L31.7344 65.9084C32.3438 74.6508 37.1481 82.9431 45.3086 87.6545C58.3523 95.1851 75.0307 90.7158 82.5615 77.6721C84.7116 73.948 85.8828 69.9277 86.1562 65.9084L100.527 65.9084Z" fill="white"/>
</svg>
