<svg width="100" height="100" viewBox="0 0 100 100" fill="none" xmlns="http://www.w3.org/2000/svg">
<g clip-path="url(#clip0_649_2491)">
<path d="M99.025 41.2422C98.7477 41.0098 96.2418 39.1055 90.8629 39.1055C89.4482 39.1137 88.0366 39.2378 86.6422 39.4766C85.6227 32.3672 79.7321 28.9297 79.4996 28.7344L78.0621 27.8984L77.1344 29.2461C75.9648 31.0758 75.1031 33.0848 74.5836 35.1934C73.607 39.2363 74.2125 43.0449 76.2535 46.2969C73.7946 47.6914 69.8082 48.0156 68.9723 48.0547H3.11486C2.70447 48.0544 2.29807 48.1354 1.91908 48.2928C1.54009 48.4503 1.196 48.6812 0.906623 48.9722C0.617246 49.2632 0.388301 49.6086 0.232973 49.9884C0.077646 50.3683 -0.000994017 50.7752 0.00158233 51.1855C-0.0866637 56.9674 0.889886 62.7161 2.88244 68.1445C5.15588 74.0918 8.54064 78.5156 12.8922 81.1992C17.818 84.2188 25.8414 85.9375 34.8844 85.9375C38.9756 85.9379 43.0583 85.5646 47.0817 84.8223C52.6908 83.8053 58.0861 81.8418 63.0367 79.0156C67.1122 76.6475 70.7775 73.6352 73.8903 70.0957C79.1305 64.1953 82.2379 57.5957 84.5114 51.7363H85.4391C91.1442 51.7363 94.6696 49.459 96.6168 47.5078C97.9094 46.2829 98.9221 44.7932 99.5856 43.1406L100.004 41.9336L99.025 41.2422Z" fill="#23293F"/>
<path d="M9.23438 46.166H18.0449C18.2521 46.166 18.4508 46.0837 18.5973 45.9372C18.7439 45.7907 18.8262 45.592 18.8262 45.3848V37.4785C18.8262 37.2713 18.7439 37.0726 18.5973 36.9261C18.4508 36.7796 18.2521 36.6973 18.0449 36.6973H9.23438C9.02717 36.6973 8.82846 36.7796 8.68195 36.9261C8.53544 37.0726 8.45312 37.2713 8.45312 37.4785V45.377C8.46086 45.5817 8.54565 45.7759 8.69052 45.9208C8.83539 46.0657 9.02964 46.1505 9.23438 46.1582M21.3848 46.166H30.1973C30.4045 46.166 30.6032 46.0837 30.7497 45.9372C30.8962 45.7907 30.9785 45.592 30.9785 45.3848V37.4785C30.9785 37.2713 30.8962 37.0726 30.7497 36.9261C30.6032 36.7796 30.4045 36.6973 30.1973 36.6973H21.3848C21.1776 36.6973 20.9789 36.7796 20.8323 36.9261C20.6858 37.0726 20.6035 37.2713 20.6035 37.4785V45.377C20.6112 45.5817 20.696 45.7759 20.8409 45.9208C20.9858 46.0657 21.18 46.1505 21.3848 46.1582M33.7676 46.166H42.5762C42.7834 46.166 42.9821 46.0837 43.1286 45.9372C43.2751 45.7907 43.3574 45.592 43.3574 45.3848V37.4785C43.3574 37.2713 43.2751 37.0726 43.1286 36.9261C42.9821 36.7796 42.7834 36.6973 42.5762 36.6973H33.7676C33.5604 36.6973 33.3617 36.7796 33.2152 36.9261C33.0686 37.0726 32.9863 37.2713 32.9863 37.4785V45.377C32.9828 45.4805 33.0006 45.5837 33.0386 45.6801C33.0766 45.7765 33.134 45.864 33.2073 45.9373C33.2805 46.0105 33.3681 46.0679 33.4645 46.1059C33.5609 46.144 33.664 46.1617 33.7676 46.1582M45.9668 46.166H54.7793C54.9865 46.166 55.1852 46.0837 55.3317 45.9372C55.4782 45.7907 55.5605 45.592 55.5605 45.3848V37.4785C55.5605 37.2713 55.4782 37.0726 55.3317 36.9261C55.1852 36.7796 54.9865 36.6973 54.7793 36.6973H45.9668C45.7596 36.6973 45.5609 36.7796 45.4144 36.9261C45.2679 37.0726 45.1855 37.2713 45.1855 37.4785V45.377C45.1855 45.5842 45.2679 45.7829 45.4144 45.9294C45.5609 46.0759 45.7596 46.1582 45.9668 46.1582M21.3848 34.877H30.1973C30.402 34.8692 30.5962 34.7844 30.7411 34.6396C30.886 34.4947 30.9708 34.3004 30.9785 34.0957V26.1895C30.9785 25.9823 30.8962 25.7835 30.7497 25.637C30.6032 25.4905 30.4045 25.4082 30.1973 25.4082H21.3848C21.1776 25.4082 20.9789 25.4905 20.8323 25.637C20.6858 25.7835 20.6035 25.9823 20.6035 26.1895V34.0879C20.6188 34.29 20.706 34.48 20.8494 34.6233C20.9927 34.7666 21.1826 34.8538 21.3848 34.8691M33.7676 34.877H42.5762C42.7809 34.8692 42.9752 34.7844 43.12 34.6396C43.2649 34.4947 43.3497 34.3004 43.3574 34.0957V26.1895C43.3574 25.9823 43.2751 25.7835 43.1286 25.637C42.9821 25.4905 42.7834 25.4082 42.5762 25.4082H33.7676C33.5604 25.4082 33.3617 25.4905 33.2152 25.637C33.0686 25.7835 32.9863 25.9823 32.9863 26.1895V34.0879C32.9863 34.2951 33.0686 34.4938 33.2152 34.6403C33.3617 34.7868 33.5604 34.8691 33.7676 34.8691M45.9668 34.877H54.7793C54.984 34.8692 55.1783 34.7844 55.3231 34.6396C55.468 34.4947 55.5528 34.3004 55.5605 34.0957V26.1895C55.5528 25.9847 55.468 25.7905 55.3231 25.6456C55.1783 25.5007 54.984 25.4159 54.7793 25.4082H45.9668C45.7596 25.4082 45.5609 25.4905 45.4144 25.637C45.2679 25.7835 45.1855 25.9823 45.1855 26.1895V34.0879C45.1933 34.2926 45.2781 34.4869 45.4229 34.6317C45.5678 34.7766 45.7621 34.8614 45.9668 34.8691M45.9668 23.541H54.7793C54.9865 23.541 55.1852 23.4587 55.3317 23.3122C55.4782 23.1657 55.5605 22.967 55.5605 22.7598V14.8438C55.5528 14.639 55.468 14.4448 55.3231 14.2999C55.1783 14.155 54.984 14.0702 54.7793 14.0625H45.9668C45.7596 14.0625 45.5609 14.1448 45.4144 14.2913C45.2679 14.4378 45.1855 14.6365 45.1855 14.8438V22.7422C45.1937 22.9468 45.2787 23.1408 45.4234 23.2855C45.5682 23.4303 45.7622 23.5153 45.9668 23.5234M58.2559 46.166H67.0684C67.2756 46.166 67.4743 46.0837 67.6208 45.9372C67.7673 45.7907 67.8496 45.592 67.8496 45.3848V37.4785C67.8496 37.2713 67.7673 37.0726 67.6208 36.9261C67.4743 36.7796 67.2756 36.6973 67.0684 36.6973H58.2559C58.0487 36.6973 57.8499 36.7796 57.7034 36.9261C57.5569 37.0726 57.4746 37.2713 57.4746 37.4785V45.377C57.4823 45.5817 57.5671 45.7759 57.712 45.9208C57.8569 46.0657 58.0511 46.1505 58.2559 46.1582" fill="#23293F"/>
</g>
<defs>
<clipPath id="clip0_649_2491">
<rect width="100" height="100" fill="white"/>
</clipPath>
</defs>
</svg>
