<svg width="100" height="100" viewBox="0 0 100 100" fill="none" xmlns="http://www.w3.org/2000/svg">
<path d="M64.5898 68.75L79.7695 31.25H69.707L59.3242 55.4824L51.9395 31.25H44.2031L36.2773 55.4824L30.6855 44.4414L25.627 59.9609L30.7637 68.75H40.666L47.8301 47.0176L54.666 68.75H64.5898ZM9.5293 55.877H15.7109C17.3999 55.9006 19.0839 55.6896 20.7148 55.25L22.3125 50.3301L26.7812 36.582C26.4363 36.0395 26.0441 35.5284 25.6094 35.0547C23.3203 32.5182 19.9655 31.25 15.5449 31.25H0V68.75H9.5293V55.877ZM17.7129 39.877C18.61 40.778 19.0579 41.9837 19.0566 43.4941C19.0553 45.0046 18.6647 46.2109 17.8848 47.1133C17.0202 48.1055 15.429 48.6009 13.1113 48.5996H9.5293V38.5254H13.127C15.2871 38.5254 16.8158 38.9759 17.7129 39.877ZM73.6035 62.0332L76.4922 54.7578H84.8301L80.873 43.7207L85.8223 31.25L100 68.75H89.5449L87.123 62.0332H73.6035Z" fill="#23293F"/>
</svg>
