<svg width="186" height="186" viewBox="0 0 186 186" fill="none" xmlns="http://www.w3.org/2000/svg">
    <path
        d="M48.6579 26.8994C47.5761 27.6347 46.5129 28.0238 45.4682 28.0665C44.4334 28.1024 43.4592 27.8433 42.5456 27.289C41.6319 26.7348 40.8176 25.9317 40.1025 24.8797C39.3874 23.8277 38.9369 22.77 38.7509 21.7067C38.5748 20.6365 38.6938 19.627 39.108 18.678C39.5253 17.7123 40.2748 16.8618 41.3566 16.1265C42.1406 15.5936 42.9131 15.2571 43.674 15.1171C44.4282 14.9672 45.1424 15.004 45.8168 15.2276C46.4943 15.4345 47.1085 15.815 47.6593 16.3692L46.1111 17.4216C45.6182 17.0167 45.0423 16.8205 44.3834 16.8331C43.7245 16.8457 43.0378 17.0949 42.3233 17.5806C41.5293 18.1203 41.014 18.739 40.7773 19.4368C40.5506 20.1278 40.5304 20.8452 40.7169 21.5891C40.8965 22.323 41.2191 23.0324 41.6846 23.7172C42.1636 24.4218 42.723 24.9992 43.3627 25.4494C44.0025 25.8996 44.6953 26.1397 45.4411 26.1696C46.1869 26.1994 46.9469 25.9513 47.721 25.4251C48.1973 25.1013 48.5753 24.7501 48.8548 24.3714C49.1275 23.9829 49.3036 23.5802 49.3831 23.1635C49.4558 22.7368 49.4221 22.3244 49.282 21.9262L50.9344 20.803C51.2439 21.5358 51.3587 22.2703 51.2788 23.0066C51.1989 23.7429 50.9406 24.4408 50.5039 25.1004C50.0671 25.7601 49.4518 26.3597 48.6579 26.8994ZM54.9603 22.721L49.5231 11.215L51.2482 10.3998L53.9091 16.0307L56.456 7.93883L58.5392 6.95444L56.1607 14.3496L63.9438 18.4758L61.8932 19.4448L55.422 16.0724L54.8089 17.9348L56.6854 21.9058L54.9603 22.721ZM65.5977 17.9345L61.891 5.76029L66.282 4.42339C67.1889 4.14727 68.0132 4.05309 68.7549 4.14086C69.5081 4.22513 70.1553 4.51731 70.6964 5.01738C71.234 5.50597 71.6479 6.22668 71.938 7.17949C72.2176 8.09787 72.2451 8.92993 72.0206 9.67566C71.8076 10.4179 71.3998 11.0563 70.7974 11.591C70.1916 12.1141 69.4409 12.512 68.5455 12.7846L66.2381 13.4872L67.4229 17.3788L65.5977 17.9345ZM65.7348 11.8341L67.9733 11.1525C68.8458 10.8869 69.4849 10.4728 69.8906 9.91023C70.2928 9.33618 70.3559 8.59571 70.0798 7.68881C69.8386 6.89671 69.4405 6.37192 68.8854 6.11442C68.3269 5.84545 67.6056 5.84553 66.7217 6.11466L64.2248 6.87486L65.7348 11.8341ZM82.0684 14.1885C80.7731 14.3698 79.6355 14.2504 78.6558 13.8301C77.6863 13.3963 76.9016 12.7246 76.3017 11.815C75.7018 10.9054 75.3154 9.83261 75.1423 8.59666C74.9677 7.34883 75.0439 6.20522 75.3709 5.16585C75.698 4.12647 76.2749 3.27023 77.1015 2.59712C77.9265 1.91213 78.9867 1.47897 80.2821 1.29764C81.5893 1.11465 82.7269 1.2341 83.6947 1.656C84.6626 2.0779 85.4464 2.74366 86.0463 3.65327C86.6462 4.56289 87.0335 5.64162 87.2082 6.88945C87.3812 8.1254 87.3042 9.26306 86.9771 10.3024C86.65 11.3418 86.074 12.204 85.249 12.889C84.4359 13.5723 83.3757 14.0055 82.0684 14.1885ZM81.8442 12.4568C82.7949 12.3237 83.5426 11.9949 84.0871 11.4704C84.6316 10.9458 84.9966 10.307 85.182 9.55407C85.3674 8.8011 85.4019 8.00867 85.2854 7.17678C85.1973 6.54692 85.0301 5.95842 84.7838 5.41127C84.5495 4.86246 84.2352 4.39149 83.8409 3.99835C83.4465 3.60522 82.9705 3.32047 82.4126 3.14411C81.8548 2.96774 81.2253 2.92863 80.5241 3.02678C79.5853 3.15821 78.8377 3.48703 78.2812 4.01325C77.7367 4.5378 77.3658 5.1774 77.1685 5.93204C76.9712 6.68668 76.9316 7.48588 77.0497 8.32966C77.1662 9.16154 77.4169 9.91405 77.802 10.5872C78.1989 11.2586 78.7312 11.7718 79.3988 12.1267C80.0783 12.4799 80.8935 12.5899 81.8442 12.4568ZM88.8231 13.2431L88.8643 11.3895C89.2002 11.397 89.4836 11.3373 89.7145 11.2104C89.9576 11.0717 90.1538 10.884 90.3031 10.6473C90.4646 10.3988 90.5789 10.1193 90.6458 9.80868C90.7377 9.45063 90.806 9.08005 90.8505 8.69695C90.895 8.31384 90.9275 7.93047 90.948 7.54683C90.9805 7.16345 91.0005 6.80381 91.008 6.46789L91.2313 0.459367L99.9052 0.65185L99.6229 13.3747L97.7153 13.3324L97.9589 2.35509L93.0462 2.24607L92.8931 5.89757C92.8494 6.78482 92.8065 7.63608 92.7644 8.45135C92.7226 9.25462 92.6224 9.98457 92.4638 10.6412C92.3174 11.2861 92.0535 11.8204 91.672 12.244C91.3644 12.5853 90.9807 12.8349 90.5211 12.9927C90.0735 13.1508 89.5075 13.2343 88.8231 13.2431ZM102.565 13.656L104.706 1.11145L106.586 1.43246L105.732 6.4361L108.27 6.86917C108.908 6.97819 109.497 7.13338 110.035 7.33473C110.586 7.52627 111.059 7.78951 111.452 8.12445C111.845 8.45938 112.126 8.88463 112.293 9.40019C112.475 9.90593 112.503 10.5255 112.378 11.2589C112.246 12.0278 112.007 12.6443 111.66 13.1086C111.313 13.5728 110.883 13.9193 110.369 14.1481C109.857 14.3651 109.294 14.4882 108.681 14.5174C108.069 14.5347 107.426 14.4858 106.752 14.3707L102.565 13.656ZM104.739 12.2559L106.975 12.6375C107.389 12.7082 107.783 12.7512 108.158 12.7664C108.545 12.7837 108.892 12.7456 109.2 12.6521C109.522 12.5488 109.79 12.3694 110.004 12.1137C110.23 11.8601 110.383 11.4967 110.464 11.0236C110.541 10.5741 110.518 10.2051 110.397 9.91657C110.278 9.61624 110.088 9.37679 109.826 9.19821C109.564 9.01964 109.259 8.88233 108.91 8.78627C108.563 8.67839 108.195 8.59113 107.805 8.52451L105.445 8.12173L104.739 12.2559ZM115.678 16.4541L118.916 5.9623L115.063 4.77338L115.578 3.10501L125.09 6.04017L124.575 7.70854L120.739 6.52492L117.501 17.0167L115.678 16.4541ZM122.909 18.8953L128.259 7.34832L136.213 11.0333L135.479 12.6176L129.256 9.73463L127.652 13.1971L133.156 15.7471L132.43 17.315L126.926 14.765L125.375 18.1131L131.597 20.996L130.863 22.5803L122.909 18.8953ZM137.596 26.7151L145.285 16.5747L149.143 19.5002C149.631 19.87 150.043 20.2502 150.379 20.6408C150.732 21.029 150.981 21.4359 151.125 21.8615C151.276 22.2775 151.302 22.7108 151.201 23.1615C151.117 23.6099 150.886 24.0827 150.509 24.5799C150.14 25.0676 149.696 25.424 149.179 25.6493C148.669 25.865 148.117 25.8981 147.522 25.7486C148.023 26.3392 148.264 26.9657 148.243 27.628C148.24 28.288 147.984 28.9527 147.477 29.622C147.049 30.1862 146.585 30.5797 146.085 30.8027C145.591 31.0161 145.075 31.0914 144.535 31.0285C143.996 30.9657 143.446 30.7972 142.886 30.523C142.342 30.2466 141.798 29.9017 141.253 29.4884L137.596 26.7151ZM140.171 26.4767L142.337 28.1189C142.623 28.3364 142.921 28.5396 143.23 28.7284C143.546 28.9077 143.863 29.0354 144.182 29.1115C144.51 29.1948 144.826 29.1856 145.129 29.084C145.441 28.9897 145.732 28.7656 146 28.4118C146.225 28.1154 146.352 27.8281 146.382 27.5498C146.42 27.262 146.387 26.9882 146.282 26.7285C146.178 26.4687 146.015 26.2171 145.793 25.9735C145.581 25.7372 145.341 25.5175 145.073 25.3145L142.52 23.3786L140.171 26.4767ZM143.51 22.0734L145.432 23.5308C145.757 23.7773 146.075 23.9733 146.386 24.119C146.707 24.2719 147.018 24.3575 147.321 24.3759C147.623 24.3943 147.903 24.343 148.16 24.2219C148.427 24.1081 148.673 23.903 148.898 23.6066C149.195 23.2146 149.327 22.8624 149.292 22.5503C149.265 22.2285 149.129 21.9218 148.883 21.6301C148.647 21.3457 148.352 21.0693 147.998 20.801L145.761 19.1044L143.51 22.0734ZM146.942 34.0927L156.11 25.2665L157.433 26.6411L153.4 30.5236L157.82 35.114L161.852 31.2315L163.176 32.606L154.008 41.4322L152.685 40.0577L156.562 36.3249L152.142 31.7345L148.265 35.4673L146.942 34.0927ZM155.882 43.7354L166.385 36.5502L167.463 38.125L159.499 43.5724L171.172 43.5476L172.209 45.063L161.705 52.2482L160.638 50.6883L168.527 45.2918L156.908 45.2359L155.882 43.7354ZM164.896 58.7303C164.622 58.1565 164.415 57.5705 164.275 56.9722C164.152 56.3796 164.119 55.8101 164.177 55.2636C164.235 54.7172 164.407 54.2157 164.694 53.7592C164.992 53.2975 165.434 52.9135 166.019 52.6072L166.827 54.2962C166.528 54.4787 166.312 54.7084 166.178 54.9851C166.045 55.2619 165.972 55.5692 165.961 55.9071C165.96 56.2399 166.005 56.5842 166.095 56.9401C166.186 57.2959 166.311 57.6417 166.471 57.9773C166.596 58.2371 166.752 58.5083 166.94 58.7907C167.133 59.084 167.36 59.3349 167.619 59.5435C167.878 59.752 168.174 59.8834 168.506 59.9376C168.838 59.9918 169.204 59.9231 169.604 59.7316C169.983 59.5505 170.255 59.3406 170.421 59.102C170.597 58.8582 170.687 58.5888 170.693 58.2937C170.709 57.9934 170.661 57.6705 170.549 57.325C170.442 56.9903 170.298 56.6335 170.117 56.2546L169.41 54.7768L170.905 54.0625L171.363 55.0207C171.533 55.378 171.729 55.7035 171.949 55.9972C172.174 56.3018 172.412 56.5475 172.661 56.7344C172.92 56.9162 173.2 57.0285 173.5 57.0714C173.8 57.1143 174.107 57.0607 174.421 56.9106C174.897 56.6829 175.197 56.393 175.322 56.0409C175.446 55.6889 175.472 55.3109 175.398 54.9071C175.325 54.5032 175.203 54.1227 175.032 53.7654C174.83 53.3431 174.579 52.971 174.279 52.649C173.984 52.3378 173.655 52.1227 173.292 52.0035C172.945 51.89 172.588 51.9213 172.22 52.0972L171.404 50.392C171.929 50.1545 172.422 50.0451 172.884 50.064C173.345 50.0829 173.77 50.1925 174.158 50.3926C174.562 50.5983 174.925 50.857 175.247 51.1687C175.569 51.4803 175.848 51.8127 176.083 52.1657C176.318 52.5188 176.511 52.8523 176.661 53.1663C176.894 53.6535 177.065 54.1503 177.174 54.6568C177.294 55.1581 177.323 55.6497 177.26 56.1317C177.203 56.6244 177.032 57.0723 176.746 57.4751C176.459 57.878 176.04 58.2114 175.488 58.4753C175.217 58.6047 174.912 58.7039 174.573 58.7731C174.244 58.837 173.885 58.8226 173.495 58.7298C173.121 58.6427 172.708 58.4341 172.258 58.104C172.422 58.8369 172.327 59.5008 171.973 60.0957C171.624 60.7014 171.109 61.1672 170.427 61.4933C169.804 61.7775 169.217 61.8986 168.665 61.8566C168.113 61.8146 167.603 61.6526 167.136 61.3705C166.669 61.0885 166.246 60.7187 165.867 60.2611C165.494 59.8144 165.17 59.3041 164.896 58.7303ZM174.493 71.0041C174.397 70.6447 174.381 70.2825 174.446 69.9177C174.513 69.5645 174.671 69.2492 174.92 68.9718C175.169 68.6944 175.514 68.4971 175.955 68.3798C176.593 68.2101 177.144 68.2746 177.608 68.5732C178.087 68.8803 178.406 69.3296 178.563 69.921C178.665 70.3037 178.669 70.6689 178.575 71.0167C178.496 71.373 178.329 71.6783 178.074 71.9324C177.822 72.1982 177.481 72.3882 177.052 72.5024C176.437 72.6659 175.892 72.5999 175.416 72.3044C174.952 72.0058 174.644 71.5724 174.493 71.0041ZM172.401 87.4075C172.306 86.103 172.501 84.9878 172.987 84.062C173.474 83.1481 174.186 82.4343 175.123 81.9207C176.06 81.407 177.163 81.1039 178.431 81.0112C179.7 80.9186 180.841 81.0578 181.855 81.4289C182.869 81.812 183.684 82.4203 184.298 83.2538C184.925 84.0983 185.287 85.1729 185.382 86.4774C185.451 87.4229 185.356 88.26 185.096 88.9889C184.848 89.7168 184.459 90.3168 183.928 90.7887C183.41 91.2718 182.773 91.6131 182.018 91.8126L181.881 89.9456C182.478 89.7215 182.937 89.3211 183.255 88.7443C183.574 88.1676 183.702 87.4483 183.639 86.5866C183.569 85.6292 183.291 84.8734 182.806 84.3193C182.321 83.7772 181.71 83.4007 180.973 83.1899C180.247 82.9781 179.472 82.9024 178.646 82.9628C177.796 83.0248 177.016 83.2202 176.306 83.5488C175.596 83.8774 175.042 84.357 174.643 84.9878C174.244 85.6185 174.078 86.4007 174.146 87.3342C174.188 87.9087 174.303 88.4116 174.491 88.8431C174.691 89.2736 174.952 89.6276 175.273 89.905C175.606 90.1814 175.98 90.3587 176.394 90.4367L176.54 92.4293C175.751 92.3306 175.057 92.0624 174.46 91.6248C173.862 91.1871 173.387 90.6142 173.035 89.906C172.682 89.1978 172.471 88.365 172.401 87.4075ZM172.873 94.957L185.561 95.9387L185.414 97.841L179.204 97.3606L184.97 103.584L184.792 105.881L179.548 100.149L172.106 104.863L172.281 102.602L178.418 98.6538L177.105 97.1982L172.726 96.8594L172.873 94.957ZM171.755 106.569L184.163 109.397L183.143 113.873C182.932 114.797 182.604 115.559 182.16 116.159C181.713 116.771 181.138 117.188 180.435 117.409C179.744 117.633 178.913 117.635 177.942 117.413C177.006 117.2 176.27 116.811 175.734 116.245C175.196 115.692 174.844 115.021 174.679 114.233C174.526 113.447 174.553 112.598 174.761 111.685L175.297 109.333L171.331 108.429L171.755 106.569ZM176.982 109.717L176.462 111.999C176.259 112.888 176.301 113.648 176.588 114.28C176.887 114.914 177.498 115.337 178.422 115.547C179.23 115.731 179.883 115.646 180.382 115.293C180.893 114.941 181.251 114.315 181.456 113.414L182.036 110.87L176.982 109.717ZM166.816 122.723C167.304 121.509 167.974 120.583 168.826 119.942C169.686 119.318 170.659 118.972 171.746 118.905C172.834 118.838 173.957 119.037 175.115 119.502C176.284 119.973 177.237 120.608 177.976 121.41C178.714 122.211 179.169 123.138 179.341 124.19C179.524 125.246 179.372 126.381 178.884 127.595C178.391 128.82 177.721 129.746 176.873 130.376C176.025 131.005 175.057 131.353 173.97 131.42C172.882 131.487 171.754 131.285 170.585 130.815C169.427 130.35 168.479 129.716 167.741 128.915C167.002 128.114 166.542 127.185 166.359 126.128C166.171 125.083 166.323 123.948 166.816 122.723ZM168.429 123.391C168.071 124.282 167.984 125.094 168.167 125.827C168.351 126.561 168.723 127.195 169.284 127.731C169.844 128.267 170.514 128.692 171.294 129.005C171.884 129.242 172.477 129.39 173.074 129.449C173.667 129.52 174.232 129.482 174.769 129.336C175.306 129.189 175.79 128.918 176.221 128.523C176.652 128.127 177 127.6 177.264 126.943C177.617 126.064 177.705 125.252 177.525 124.507C177.342 123.774 176.972 123.134 176.416 122.587C175.86 122.04 175.187 121.607 174.396 121.289C173.617 120.976 172.839 120.819 172.064 120.817C171.284 120.827 170.574 121.033 169.933 121.435C169.289 121.848 168.787 122.5 168.429 123.391ZM164.271 129.05L165.857 130.011C165.683 130.298 165.593 130.574 165.588 130.837C165.587 131.117 165.651 131.381 165.782 131.628C165.917 131.892 166.102 132.131 166.338 132.344C166.602 132.602 166.889 132.846 167.199 133.076C167.509 133.306 167.825 133.525 168.147 133.735C168.463 133.954 168.764 134.151 169.052 134.325L174.147 137.517L169.651 144.938L158.767 138.343L159.756 136.711L169.146 142.401L171.693 138.198L168.605 136.243C167.858 135.762 167.142 135.3 166.456 134.857C165.781 134.42 165.199 133.969 164.709 133.504C164.223 133.055 163.892 132.559 163.715 132.017C163.573 131.581 163.548 131.124 163.641 130.647C163.727 130.18 163.937 129.648 164.271 129.05ZM157.059 140.751L166.879 148.845L165.666 150.318L161.749 147.089L160.112 149.076C159.7 149.576 159.273 150.009 158.831 150.375C158.39 150.759 157.927 151.038 157.441 151.213C156.955 151.387 156.446 151.419 155.916 151.309C155.386 151.215 154.835 150.931 154.261 150.458C153.659 149.962 153.243 149.448 153.012 148.916C152.782 148.384 152.695 147.838 152.752 147.279C152.819 146.727 152.991 146.177 153.271 145.63C153.56 145.091 153.922 144.557 154.357 144.03L157.059 140.751ZM157.193 143.334L155.75 145.084C155.483 145.409 155.25 145.729 155.05 146.047C154.843 146.374 154.704 146.694 154.632 147.008C154.561 147.339 154.584 147.661 154.699 147.973C154.807 148.295 155.046 148.609 155.416 148.914C155.768 149.204 156.099 149.369 156.41 149.407C156.73 149.453 157.032 149.406 157.317 149.268C157.602 149.13 157.873 148.933 158.13 148.678C158.396 148.431 158.655 148.155 158.907 147.849L160.429 146.002L157.193 143.334ZM148.115 150.74L155.614 158.76L158.559 156.007L159.751 157.282L152.48 164.08L151.288 162.805L154.22 160.063L146.721 152.043L148.115 150.74ZM142.404 155.805L149.77 166.183L142.622 171.256L141.611 169.832L147.203 165.863L144.995 162.751L140.048 166.262L139.048 164.853L143.995 161.342L141.859 158.333L136.266 162.302L135.256 160.879L142.404 155.805ZM128.321 164.667L133.302 176.377L128.846 178.273C128.283 178.512 127.748 178.681 127.242 178.779C126.73 178.893 126.253 178.906 125.812 178.82C125.376 178.745 124.987 178.551 124.646 178.24C124.299 177.944 124.003 177.51 123.759 176.935C123.519 176.372 123.43 175.81 123.491 175.249C123.558 174.7 123.803 174.204 124.228 173.762C123.467 173.904 122.804 173.801 122.239 173.454C121.668 173.124 121.218 172.572 120.889 171.799C120.612 171.147 120.501 170.549 120.556 170.004C120.616 169.47 120.807 168.984 121.13 168.547C121.452 168.11 121.872 167.716 122.388 167.366C122.898 167.032 123.467 166.731 124.097 166.463L128.321 164.667ZM127.248 167.02L124.747 168.084C124.416 168.225 124.092 168.383 123.774 168.557C123.462 168.742 123.193 168.954 122.969 169.193C122.734 169.436 122.585 169.715 122.522 170.028C122.449 170.346 122.499 170.71 122.673 171.118C122.819 171.46 123.005 171.714 123.231 171.878C123.462 172.054 123.717 172.161 123.994 172.199C124.271 172.238 124.57 172.222 124.892 172.15C125.203 172.083 125.513 171.984 125.822 171.852L128.77 170.598L127.248 167.02ZM129.411 172.105L127.192 173.05C126.816 173.209 126.488 173.388 126.207 173.586C125.915 173.788 125.686 174.016 125.52 174.269C125.354 174.523 125.259 174.791 125.236 175.075C125.202 175.363 125.258 175.678 125.404 176.02C125.596 176.473 125.837 176.762 126.125 176.887C126.417 177.024 126.751 177.058 127.127 176.989C127.491 176.926 127.877 176.807 128.286 176.633L130.87 175.534L129.411 172.105ZM117.275 169.111L120.36 181.457L118.509 181.92L117.152 176.489L110.97 178.034L112.327 183.465L110.476 183.928L107.391 171.581L109.242 171.119L110.547 176.34L116.729 174.795L115.424 169.574L117.275 169.111ZM104.461 172.059L105.467 184.746L103.565 184.896L102.802 175.279L97.016 185.416L95.1858 185.561L94.1792 172.875L96.0633 172.726L96.8193 182.254L102.649 172.203L104.461 172.059ZM86.9679 172.419C87.6021 172.467 88.2135 172.579 88.802 172.755C89.3776 172.942 89.888 173.197 90.3332 173.519C90.7784 173.841 91.1276 174.241 91.3808 174.717C91.6331 175.205 91.7466 175.779 91.7213 176.439L89.8545 176.299C89.8446 175.95 89.7528 175.648 89.5792 175.394C89.4057 175.141 89.1751 174.925 88.8876 174.747C88.5992 174.581 88.2782 174.449 87.9245 174.35C87.5709 174.251 87.2086 174.188 86.8377 174.16C86.5505 174.139 86.2375 174.139 85.8989 174.162C85.5483 174.184 85.218 174.256 84.9081 174.377C84.5982 174.498 84.3372 174.689 84.1252 174.95C83.9131 175.211 83.7905 175.563 83.7574 176.006C83.7261 176.424 83.7728 176.765 83.8976 177.027C84.0215 177.301 84.2102 177.514 84.4636 177.665C84.7161 177.828 85.0201 177.947 85.3755 178.022C85.719 178.096 86.1001 178.148 86.5189 178.18L88.1524 178.302L88.0288 179.953L86.9698 179.874C86.5749 179.845 86.1953 179.852 85.8309 179.897C85.4546 179.941 85.1234 180.025 84.8374 180.148C84.5506 180.283 84.314 180.47 84.1276 180.708C83.9413 180.947 83.8352 181.24 83.8092 181.587C83.7698 182.114 83.8719 182.518 84.1155 182.801C84.359 183.084 84.6743 183.294 85.0611 183.432C85.4479 183.569 85.8388 183.652 86.2337 183.682C86.7004 183.717 87.1481 183.684 87.5768 183.584C87.9935 183.482 88.3437 183.304 88.6276 183.049C88.8986 182.804 89.0493 182.478 89.0797 182.072L90.9645 182.213C90.9095 182.786 90.7592 183.268 90.5133 183.659C90.2675 184.05 89.9612 184.364 89.5945 184.601C89.2149 184.849 88.8099 185.036 88.3794 185.16C87.9489 185.284 87.5221 185.361 87.0987 185.389C86.6754 185.418 86.2903 185.419 85.9432 185.393C85.4047 185.353 84.8887 185.254 84.395 185.097C83.9005 184.951 83.4596 184.732 83.0725 184.438C82.6733 184.143 82.3702 183.772 82.1631 183.323C81.956 182.874 81.8753 182.345 81.9209 181.735C81.9433 181.435 82.0089 181.121 82.1177 180.793C82.2257 180.476 82.4169 180.171 82.6915 179.879C82.9532 179.598 83.3392 179.344 83.8496 179.117C83.1321 178.895 82.6034 178.482 82.2635 177.879C81.9115 177.276 81.7638 176.597 81.8202 175.843C81.8832 175.161 82.0702 174.592 82.3812 174.134C82.6923 173.676 83.0863 173.314 83.5634 173.049C84.0406 172.784 84.5717 172.601 85.1568 172.5C85.73 172.399 86.3337 172.372 86.9679 172.419ZM71.5711 174.641C71.9311 174.735 72.2541 174.899 72.5401 175.135C72.8144 175.367 73.0111 175.66 73.13 176.013C73.249 176.367 73.2511 176.764 73.1364 177.205C72.9704 177.844 72.6432 178.292 72.1548 178.549C71.6517 178.815 71.104 178.872 70.5117 178.718C70.1284 178.618 69.8084 178.442 69.5517 178.189C69.2804 177.945 69.0968 177.649 69.0011 177.302C68.8938 176.952 68.8959 176.562 69.0076 176.132C69.1676 175.517 69.4933 175.074 69.9847 174.805C70.4732 174.548 71.002 174.493 71.5711 174.641ZM58.3554 164.66C59.5349 165.226 60.4057 165.949 60.9678 166.831C61.5191 167.707 61.7848 168.68 61.765 169.748C61.7451 170.816 61.4603 171.924 60.9104 173.071C60.3605 174.218 59.6727 175.139 58.8469 175.835C58.0104 176.525 57.0778 176.93 56.0493 177.049C55.0047 177.173 53.8927 176.953 52.7132 176.387C51.8584 175.978 51.1792 175.479 50.6757 174.892C50.1669 174.315 49.8397 173.679 49.694 172.984C49.5322 172.294 49.5524 171.572 49.7546 170.817L51.4426 171.626C51.3404 172.256 51.4603 172.852 51.8024 173.416C52.1446 173.979 52.7052 174.447 53.4843 174.821C54.3499 175.236 55.1438 175.37 55.866 175.224C56.5773 175.073 57.2077 174.729 57.757 174.194C58.3011 173.67 58.7521 173.035 59.1101 172.288C59.4784 171.52 59.6963 170.746 59.7639 169.966C59.8315 169.187 59.6907 168.468 59.3416 167.808C58.9925 167.148 58.396 166.616 57.5519 166.211C57.0326 165.962 56.539 165.812 56.0711 165.761C55.5982 165.72 55.1615 165.771 54.7613 165.911C54.3559 166.063 54.0164 166.299 53.7426 166.621L51.9409 165.757C52.4188 165.121 52.9961 164.653 53.6727 164.351C54.3494 164.05 55.0826 163.923 55.8723 163.969C56.6621 164.015 57.4898 164.245 58.3554 164.66ZM51.5741 161.316L44.3856 171.817L42.8111 170.739L46.3291 165.6L38.0581 167.486L36.1569 166.184L43.7414 164.505L43.375 155.703L45.2466 156.984L45.6015 164.273L47.5187 163.862L49.9996 160.238L51.5741 161.316ZM42.0731 154.551L33.4437 163.904L30.0702 160.792C29.3734 160.149 28.8754 159.485 28.5761 158.801C28.268 158.108 28.1929 157.402 28.3507 156.683C28.5004 155.972 28.913 155.25 29.5884 154.518C30.2393 153.813 30.9433 153.368 31.7002 153.185C32.4483 152.993 33.2053 153.022 33.9711 153.272C34.7288 153.53 35.4516 153.977 36.1396 154.611L37.9123 156.247L40.6708 153.257L42.0731 154.551ZM36.7406 157.517L35.0207 155.93C34.3504 155.312 33.67 154.97 32.9795 154.904C32.2809 154.847 31.6101 155.167 30.9673 155.864C30.4058 156.473 30.1544 157.081 30.2128 157.69C30.2632 158.308 30.6279 158.931 31.307 159.557L33.2253 161.327L36.7406 157.517ZM30.5081 142.238C31.3205 143.264 31.7936 144.305 31.9274 145.363C32.0444 146.418 31.8627 147.435 31.3822 148.413C30.9017 149.391 30.1724 150.267 29.1943 151.043C28.2068 151.825 27.1821 152.339 26.1203 152.583C25.0584 152.827 24.0279 152.764 23.0289 152.392C22.0204 152.027 21.1099 151.333 20.2975 150.308C19.4777 149.273 19.0045 148.232 18.8781 147.183C18.7518 146.135 18.9288 145.122 19.4093 144.144C19.8898 143.166 20.6238 142.286 21.6113 141.503C22.5894 140.728 23.6094 140.218 24.6712 139.974C25.7331 139.73 26.7683 139.79 27.7767 140.154C28.7778 140.509 29.6882 141.204 30.5081 142.238ZM29.1285 143.309C28.5322 142.556 27.8701 142.078 27.142 141.874C26.4139 141.671 25.6783 141.679 24.9351 141.901C24.1919 142.122 23.4912 142.494 22.8329 143.016C22.3344 143.411 21.9117 143.853 21.5646 144.342C21.21 144.822 20.9631 145.332 20.8239 145.871C20.6846 146.41 20.6802 146.965 20.8106 147.535C20.9411 148.106 21.2262 148.668 21.6659 149.223C22.2547 149.966 22.9169 150.444 23.6524 150.657C24.3805 150.861 25.1199 150.857 25.8705 150.645C26.6211 150.433 27.3303 150.062 27.998 149.533C28.6563 149.011 29.1782 148.414 29.5636 147.741C29.9416 147.059 30.1145 146.34 30.0823 145.585C30.0427 144.82 29.7248 144.061 29.1285 143.309ZM26.2729 136.893L24.6516 137.793C24.4886 137.499 24.2941 137.284 24.0681 137.149C23.8257 137.009 23.5647 136.934 23.285 136.925C22.989 136.91 22.69 136.953 22.388 137.052C22.0325 137.153 21.6781 137.281 21.3248 137.436C20.9715 137.59 20.6241 137.756 20.2825 137.931C19.935 138.097 19.6144 138.261 19.3206 138.424L14.0195 141.261L9.81115 133.674L20.9398 127.501L21.8653 129.17L12.2635 134.496L14.6471 138.793L17.8773 137.084C18.6655 136.674 19.4222 136.282 20.1474 135.907C20.8622 135.538 21.543 135.256 22.19 135.062C22.8207 134.863 23.4152 134.821 23.9734 134.937C24.4232 135.031 24.8322 135.236 25.2003 135.553C25.5626 135.86 25.9201 136.307 26.2729 136.893ZM19.6962 124.823L7.79724 129.336L7.12063 127.552L11.8668 125.752L10.954 123.345C10.7242 122.739 10.5598 122.153 10.4608 121.588C10.3463 121.015 10.3337 120.474 10.4231 119.966C10.5125 119.457 10.7369 119 11.0964 118.594C11.4403 118.181 11.9601 117.843 12.6558 117.579C13.3851 117.302 14.0378 117.196 14.6139 117.26C15.19 117.323 15.7068 117.519 16.1645 117.846C16.611 118.177 17.0023 118.6 17.3385 119.114C17.6635 119.632 17.9472 120.211 18.1898 120.851L19.6962 124.823ZM17.3871 123.658L16.5828 121.537C16.4339 121.145 16.271 120.783 16.0942 120.452C15.9131 120.11 15.7042 119.83 15.4675 119.612C15.2152 119.387 14.9247 119.247 14.5958 119.192C14.2627 119.125 13.8717 119.177 13.4229 119.348C12.9966 119.509 12.6897 119.716 12.5025 119.966C12.304 120.221 12.1941 120.507 12.1728 120.823C12.1515 121.139 12.1879 121.472 12.2819 121.821C12.3646 122.175 12.4763 122.537 12.6167 122.907L13.4656 125.145L17.3871 123.658ZM15.4781 112.097L4.78284 114.582L5.69506 118.509L3.99433 118.904L1.7423 109.208L3.44302 108.813L4.35117 112.723L15.0465 110.239L15.4781 112.097ZM13.9469 104.619L1.27672 105.81L0.456658 97.0821L2.195 96.9188L2.83657 103.747L6.63583 103.39L6.06836 97.3503L7.78878 97.1886L8.35626 103.228L12.0301 102.883L11.3885 96.0549L13.1268 95.8916L13.9469 104.619ZM13.2685 87.9929L0.631568 86.4898L1.20347 81.6817C1.27575 81.074 1.39528 80.5263 1.56206 80.0386C1.71833 79.5375 1.94355 79.1172 2.23773 78.7776C2.51999 78.4365 2.88098 78.1955 3.32072 78.0544C3.74996 77.9 4.2744 77.8597 4.89403 77.9334C5.50175 78.0057 6.03358 78.2079 6.48954 78.5401C6.93358 78.8709 7.24145 79.3304 7.41316 79.9188C7.66927 79.188 8.08812 78.6638 8.6697 78.3462C9.24077 78.0154 9.94337 77.8996 10.7775 77.9988C11.4805 78.0824 12.0548 78.2836 12.5002 78.6025C12.9338 78.9199 13.26 79.3273 13.4787 79.8246C13.6975 80.3219 13.8304 80.8815 13.8772 81.5034C13.9136 82.112 13.8914 82.7559 13.8106 83.4351L13.2685 87.9929ZM11.7601 85.8921L12.0811 83.1931C12.1236 82.8356 12.1483 82.476 12.155 82.1143C12.1499 81.7511 12.0995 81.4128 12.0039 81.0993C11.9096 80.7739 11.7421 80.5063 11.5012 80.2963C11.2617 80.0745 10.9215 79.9374 10.4806 79.8849C10.1112 79.841 9.79888 79.8763 9.54355 79.991C9.27631 80.1042 9.05701 80.2715 8.88567 80.4928C8.71434 80.7141 8.57974 80.9821 8.48189 81.2967C8.38546 81.5994 8.3174 81.9176 8.27772 82.2513L7.89928 85.4329L11.7601 85.8921ZM6.27275 85.2394L6.55764 82.8443C6.60583 82.4391 6.61402 82.0655 6.58221 81.7233C6.55181 81.3693 6.46809 81.0572 6.33103 80.7871C6.19397 80.517 6.00812 80.3016 5.77347 80.1407C5.54024 79.968 5.23893 79.8596 4.86954 79.8157C4.38098 79.7576 4.01074 79.8223 3.75883 80.0099C3.49499 80.196 3.2994 80.4688 3.17205 80.8283C3.04612 81.1758 2.95693 81.5701 2.90449 82.011L2.57283 84.7993L6.27275 85.2394ZM14.9053 76.1988L2.65566 72.7493L3.17283 70.9127L8.56127 72.4301L10.2884 66.2967L4.89999 64.7793L5.41716 62.9427L17.6668 66.3922L17.1496 68.2287L11.9691 66.7699L10.2419 72.9034L15.4224 74.3622L14.9053 76.1988ZM18.7067 63.6121L7.19781 58.1811L8.01209 56.4556L16.7374 60.573L10.8159 50.5139L11.5995 48.8535L23.1084 54.2845L22.3018 55.9938L13.6579 51.9147L19.4826 61.968L18.7067 63.6121ZM27.0993 48.262C26.7417 48.7879 26.3396 49.2618 25.893 49.6837C25.4432 50.0889 24.9677 50.404 24.4664 50.6291C23.9651 50.8541 23.4449 50.9574 22.9059 50.9391C22.3569 50.9141 21.8028 50.7259 21.2436 50.3746L22.2963 48.8267C22.6043 48.9926 22.9115 49.0637 23.218 49.0399C23.5244 49.0161 23.8265 48.924 24.1242 48.7637C24.4119 48.5966 24.6868 48.3845 24.9488 48.1273C25.2108 47.8701 25.4464 47.5877 25.6556 47.2801C25.8175 47.0419 25.9732 46.7704 26.1224 46.4656C26.2784 46.1509 26.3813 45.829 26.4309 45.4999C26.4805 45.1709 26.4452 44.8494 26.325 44.5354C26.2047 44.2214 25.961 43.9396 25.5939 43.6899C25.2466 43.4537 24.9283 43.3243 24.6389 43.3016C24.3396 43.2722 24.0612 43.3296 23.8036 43.4736C23.536 43.611 23.2812 43.815 23.0391 44.0857C22.8037 44.3464 22.5679 44.6504 22.3317 44.9977L21.4105 46.3522L20.0412 45.4209L20.6384 44.5428C20.8611 44.2153 21.0439 43.8825 21.1869 43.5443C21.3365 43.1962 21.4294 42.8676 21.4656 42.5584C21.4918 42.2424 21.4479 41.9441 21.334 41.6635C21.2201 41.3829 21.0193 41.1447 20.7316 40.949C20.295 40.6521 19.8933 40.5385 19.5265 40.6084C19.1597 40.6782 18.8204 40.8465 18.5084 41.1132C18.1964 41.3799 17.929 41.677 17.7063 42.0044C17.4431 42.3914 17.248 42.7957 17.121 43.2172C17.0007 43.6288 16.9804 44.0214 17.0602 44.3949C17.1368 44.7517 17.3437 45.0449 17.6811 45.2743L16.6182 46.8371C16.1487 46.5033 15.806 46.1323 15.5901 45.7243C15.3742 45.3162 15.2549 44.8941 15.2323 44.4579C15.2066 44.005 15.2473 43.561 15.3545 43.126C15.4617 42.691 15.6086 42.2829 15.7951 41.9019C15.9817 41.5209 16.1729 41.1865 16.3686 40.8987C16.6722 40.4522 17.0154 40.0543 17.3981 39.705C17.7708 39.349 18.181 39.0765 18.6288 38.8876C19.0833 38.6888 19.5566 38.6116 20.0488 38.6561C20.541 38.7006 21.0401 38.8949 21.5462 39.2391C21.7942 39.4078 22.0336 39.6214 22.2641 39.8798C22.4848 40.1315 22.6533 40.4492 22.7696 40.833C22.8827 41.2002 22.91 41.6614 22.8516 42.2167C23.4022 41.7059 24.0236 41.4537 24.7158 41.4601C25.4148 41.4566 26.0769 41.6674 26.702 42.0925C27.2609 42.4871 27.6611 42.9335 27.9028 43.4316C28.1445 43.9298 28.2612 44.4518 28.2528 44.9975C28.2444 45.5433 28.1378 46.0948 27.933 46.6521C27.7349 47.1994 27.457 47.7361 27.0993 48.262ZM32.8537 33.8102C32.5931 34.0757 32.2894 34.2736 31.9427 34.4041C31.6044 34.526 31.2524 34.5505 30.8869 34.4774C30.5213 34.4044 30.1759 34.2082 29.8505 33.8887C29.3795 33.4263 29.1542 32.9193 29.1746 32.3675C29.1949 31.7988 29.4194 31.2961 29.8481 30.8594C30.1256 30.5768 30.4378 30.3872 30.7848 30.2907C31.1317 30.1772 31.4795 30.1655 31.8282 30.2557C32.1854 30.3373 32.5224 30.5336 32.8392 30.8446C33.293 31.2902 33.514 31.7931 33.5022 32.3532C33.4818 32.905 33.2656 33.3907 32.8537 33.8102Z"
        fill="#C0CED7" />
</svg>