<svg width="970" height="135" viewBox="0 0 970 135" fill="none" xmlns="http://www.w3.org/2000/svg">
<path d="M170.233 84.71C166.31 84.71 162.957 83.9253 160.175 82.356C157.393 80.7867 155.271 78.5576 153.809 75.6686C152.382 72.7796 151.669 69.3913 151.669 65.5037C151.669 61.5448 152.418 58.103 153.916 55.1783C155.414 52.2537 157.536 49.9889 160.282 48.3839C163.064 46.7433 166.346 45.9229 170.126 45.9229C173.051 45.9229 175.69 46.4401 178.044 47.4744C180.398 48.5087 182.306 50.0424 183.769 52.0754C185.267 54.0727 186.176 56.605 186.497 59.6723H178.205C177.777 57.9246 176.903 56.5693 175.583 55.6063C174.299 54.6077 172.552 54.1083 170.34 54.1083C167.951 54.1083 166.043 54.6612 164.616 55.7668C163.189 56.8368 162.155 58.21 161.513 59.8863C160.907 61.5626 160.603 63.3102 160.603 65.1292C160.603 67.0195 160.924 68.8385 161.566 70.5861C162.244 72.3338 163.296 73.7604 164.723 74.8661C166.185 75.9717 168.111 76.5246 170.501 76.5246C171.927 76.5246 173.176 76.3106 174.246 75.8826C175.351 75.4546 176.261 74.8304 176.974 74.0101C177.688 73.1898 178.187 72.209 178.472 71.0676H186.979C186.693 74.0279 185.748 76.5246 184.143 78.5576C182.574 80.5905 180.559 82.1242 178.098 83.1585C175.672 84.1928 173.051 84.71 170.233 84.71ZM199.918 84.282V54.4293H188.523V46.4044H220.088V54.4293H208.585V84.282H199.918ZM224.182 84.282V46.4044H239.537C242.461 46.4044 245.011 46.8324 247.187 47.6884C249.398 48.5444 251.11 49.9354 252.323 51.8614C253.571 53.7873 254.196 56.391 254.196 59.6723C254.196 62.7039 253.536 65.2362 252.216 67.2692C250.896 69.3022 249.095 70.818 246.813 71.8166C244.53 72.7796 241.926 73.2611 239.002 73.2611H232.849V84.282H224.182ZM232.849 65.5572H239.002C241.035 65.5572 242.64 65.0579 243.817 64.0592C245.029 63.0606 245.636 61.5983 245.636 59.6723C245.636 57.9246 245.118 56.6228 244.084 55.7668C243.085 54.8752 241.427 54.4293 239.109 54.4293H232.849V65.5572ZM276.875 84.71C272.987 84.71 269.617 83.9075 266.764 82.3025C263.946 80.6619 261.77 78.3971 260.237 75.5081C258.703 72.5835 257.936 69.213 257.936 65.3967C257.936 61.4734 258.721 58.0673 260.29 55.1783C261.895 52.2537 264.124 49.9889 266.978 48.3839C269.831 46.7433 273.201 45.9229 277.089 45.9229C280.905 45.9229 284.222 46.7254 287.04 48.3304C289.893 49.9354 292.105 52.1824 293.674 55.0713C295.279 57.9246 296.081 61.2951 296.081 65.1827C296.081 68.999 295.297 72.3873 293.727 75.3476C292.158 78.2722 289.929 80.5727 287.04 82.249C284.187 83.8897 280.798 84.71 276.875 84.71ZM277.036 76.5246C279.461 76.5246 281.423 75.9717 282.921 74.8661C284.418 73.7604 285.506 72.3516 286.184 70.6396C286.862 68.9277 287.2 67.18 287.2 65.3967C287.2 64.0771 287.004 62.7574 286.612 61.4378C286.255 60.1181 285.667 58.9055 284.846 57.7998C284.062 56.6941 283.028 55.8025 281.744 55.1248C280.46 54.4472 278.872 54.1083 276.982 54.1083C274.592 54.1083 272.649 54.6612 271.151 55.7668C269.653 56.8368 268.547 58.2278 267.834 59.9398C267.156 61.6518 266.817 63.4529 266.817 65.3432C266.817 67.2335 267.174 69.0347 267.887 70.7466C268.601 72.4586 269.706 73.8496 271.204 74.9196C272.738 75.9896 274.682 76.5246 277.036 76.5246ZM301.61 84.282V46.4044H310.277V69.4627L327.718 46.4044H334.78V84.282H326.059V61.5983L308.672 84.282H301.61ZM318.355 44.5855C316.287 44.5855 314.468 44.2466 312.899 43.569C311.329 42.8913 310.099 41.8748 309.207 40.5195C308.315 39.1285 307.816 37.3809 307.709 35.2766H314.664C314.735 36.3466 315.128 37.1847 315.841 37.791C316.554 38.3617 317.428 38.647 318.462 38.647C319.532 38.647 320.388 38.3617 321.03 37.791C321.672 37.1847 322.011 36.3466 322.047 35.2766H329.055C328.984 37.3809 328.485 39.1285 327.557 40.5195C326.666 41.8748 325.417 42.8913 323.812 43.569C322.243 44.2466 320.424 44.5855 318.355 44.5855ZM342.362 84.282V46.4044H370.93V54.4293H351.029V60.7423H359.053C360.908 60.7423 362.674 60.9028 364.35 61.2238C366.026 61.5091 367.524 62.0441 368.844 62.8287C370.163 63.6134 371.198 64.719 371.947 66.1457C372.696 67.5723 373.07 69.4092 373.07 71.6561C373.07 74.1528 372.607 76.2214 371.679 77.8621C370.788 79.5027 369.575 80.8045 368.041 81.7675C366.543 82.6948 364.867 83.3547 363.012 83.747C361.158 84.1037 359.303 84.282 357.448 84.282H342.362ZM351.029 76.3106H357.823C358.608 76.3106 359.392 76.2571 360.177 76.1501C360.962 76.0431 361.675 75.8469 362.317 75.5616C362.959 75.2763 363.476 74.8483 363.868 74.2776C364.296 73.7069 364.51 72.9579 364.51 72.0306C364.51 71.2103 364.332 70.5505 363.975 70.0512C363.654 69.5518 363.209 69.1773 362.638 68.9277C362.067 68.6423 361.39 68.464 360.605 68.3927C359.856 68.2857 359.053 68.2322 358.197 68.2322H351.029V76.3106ZM378.933 84.282V46.4044H406.86V54.4293H387.6V61.5983H403.811V69.3022H387.6V76.3106H406.86V84.282H378.933ZM426.601 84.71C424.461 84.71 422.428 84.4781 420.502 84.0145C418.612 83.5152 416.9 82.7483 415.367 81.714C413.869 80.6797 412.656 79.3422 411.729 77.7016C410.801 76.0609 410.248 74.0636 410.07 71.7096H418.362C418.541 72.637 418.88 73.4216 419.379 74.0636C419.914 74.6699 420.556 75.1693 421.305 75.5616C422.09 75.9182 422.946 76.1679 423.873 76.3106C424.8 76.4532 425.745 76.5246 426.708 76.5246C427.564 76.5246 428.385 76.4711 429.169 76.3641C429.99 76.2214 430.739 76.0074 431.416 75.7221C432.13 75.4011 432.682 74.9731 433.075 74.4381C433.503 73.8674 433.717 73.1541 433.717 72.2981C433.717 71.5135 433.538 70.8893 433.182 70.4256C432.861 69.9263 432.415 69.5518 431.844 69.3022C431.274 69.0168 430.614 68.8207 429.865 68.7137C429.116 68.6067 428.349 68.5532 427.564 68.5532H421.893V61.4378H426.387C427.243 61.4378 428.028 61.3843 428.741 61.2773C429.455 61.1346 430.079 60.9028 430.614 60.5818C431.185 60.2608 431.613 59.8684 431.898 59.4048C432.183 58.9054 432.326 58.2991 432.326 57.5858C432.326 56.6228 432.005 55.8917 431.363 55.3923C430.757 54.8573 429.99 54.5007 429.062 54.3223C428.135 54.1083 427.19 54.0013 426.227 54.0013C424.943 54.0013 423.802 54.1618 422.803 54.4828C421.804 54.7682 421.002 55.2318 420.395 55.8738C419.789 56.5158 419.415 57.3361 419.272 58.3348H410.98C411.015 56.4445 411.354 54.8217 411.996 53.4663C412.638 52.0754 413.476 50.9162 414.511 49.9889C415.545 49.0259 416.74 48.2412 418.095 47.6349C419.45 47.0286 420.895 46.6006 422.428 46.3509C423.962 46.0656 425.496 45.9229 427.029 45.9229C428.706 45.9229 430.364 46.1191 432.005 46.5114C433.645 46.9038 435.143 47.5279 436.499 48.3839C437.854 49.2042 438.924 50.2921 439.709 51.6474C440.529 53.0027 440.939 54.6433 440.939 56.5693C440.939 57.568 440.797 58.4953 440.511 59.3513C440.262 60.1716 439.851 60.9563 439.281 61.7053C438.746 62.4186 437.997 63.0962 437.034 63.7382C438.995 64.4872 440.369 65.682 441.153 67.3227C441.974 68.9633 442.384 70.8001 442.384 72.8331C442.384 74.8661 441.956 76.6494 441.1 78.1831C440.244 79.681 439.067 80.9115 437.569 81.8745C436.106 82.8375 434.43 83.5508 432.54 84.0145C430.65 84.4781 428.67 84.71 426.601 84.71ZM465.638 84.71C461.75 84.71 458.38 83.9075 455.527 82.3025C452.709 80.6619 450.533 78.3971 449 75.5081C447.466 72.5835 446.699 69.213 446.699 65.3967C446.699 61.4734 447.484 58.0673 449.053 55.1783C450.658 52.2537 452.887 49.9889 455.741 48.3839C458.594 46.7433 461.964 45.9229 465.852 45.9229C469.668 45.9229 472.985 46.7254 475.803 48.3304C478.656 49.9354 480.867 52.1824 482.437 55.0713C484.042 57.9246 484.844 61.2951 484.844 65.1827C484.844 68.999 484.06 72.3873 482.49 75.3476C480.921 78.2722 478.692 80.5727 475.803 82.249C472.95 83.8897 469.561 84.71 465.638 84.71ZM465.798 76.5246C468.224 76.5246 470.185 75.9717 471.683 74.8661C473.181 73.7604 474.269 72.3516 474.947 70.6396C475.625 68.9277 475.963 67.18 475.963 65.3967C475.963 64.0771 475.767 62.7574 475.375 61.4378C475.018 60.1181 474.43 58.9055 473.609 57.7998C472.825 56.6941 471.79 55.8025 470.506 55.1248C469.222 54.4472 467.635 54.1083 465.745 54.1083C463.355 54.1083 461.412 54.6612 459.914 55.7668C458.416 56.8368 457.31 58.2278 456.597 59.9398C455.919 61.6518 455.58 63.4529 455.58 65.3432C455.58 67.2335 455.937 69.0347 456.65 70.7466C457.363 72.4586 458.469 73.8496 459.967 74.9196C461.501 75.9896 463.444 76.5246 465.798 76.5246ZM490.373 84.282V46.4044H522.419V84.282H513.752V54.3758H499.04V84.282H490.373ZM526.122 84.282L541.102 46.4044H550.304L565.123 84.282H555.761L553.674 78.3971H537.571L535.431 84.282H526.122ZM540.299 70.5326H550.946L545.703 55.8738L540.299 70.5326ZM584.488 84.71C580.564 84.71 577.212 83.9253 574.43 82.356C571.648 80.7867 569.526 78.5576 568.063 75.6686C566.637 72.7796 565.923 69.3913 565.923 65.5037C565.923 61.5448 566.672 58.103 568.17 55.1783C569.668 52.2537 571.79 49.9889 574.537 48.3839C577.319 46.7433 580.6 45.9229 584.381 45.9229C587.305 45.9229 589.945 46.4401 592.299 47.4744C594.653 48.5087 596.561 50.0424 598.023 52.0754C599.521 54.0727 600.43 56.605 600.751 59.6723H592.459C592.031 57.9246 591.157 56.5693 589.838 55.6063C588.554 54.6077 586.806 54.1083 584.595 54.1083C582.205 54.1083 580.297 54.6612 578.87 55.7668C577.444 56.8368 576.409 58.21 575.767 59.8863C575.161 61.5626 574.858 63.3102 574.858 65.1292C574.858 67.0195 575.179 68.8385 575.821 70.5861C576.498 72.3338 577.551 73.7604 578.977 74.8661C580.44 75.9717 582.365 76.5246 584.755 76.5246C586.182 76.5246 587.43 76.3106 588.5 75.8826C589.606 75.4546 590.515 74.8304 591.229 74.0101C591.942 73.1898 592.441 72.209 592.727 71.0676H601.233C600.948 74.0279 600.002 76.5246 598.397 78.5576C596.828 80.5905 594.813 82.1242 592.352 83.1585C589.927 84.1928 587.305 84.71 584.488 84.71ZM606.724 84.282V46.4044H615.391V61.5983H630.477V46.4044H639.144V84.282H630.477V69.5697H615.391V84.282H606.724ZM663.596 84.71C659.708 84.71 656.338 83.9075 653.485 82.3025C650.667 80.6619 648.491 78.3971 646.958 75.5081C645.424 72.5835 644.657 69.213 644.657 65.3967C644.657 61.4734 645.442 58.0673 647.011 55.1783C648.616 52.2537 650.845 49.9889 653.699 48.3839C656.552 46.7433 659.922 45.9229 663.81 45.9229C667.626 45.9229 670.943 46.7254 673.761 48.3304C676.614 49.9354 678.826 52.1824 680.395 55.0713C682 57.9246 682.802 61.2951 682.802 65.1827C682.802 68.999 682.018 72.3873 680.448 75.3476C678.879 78.2722 676.65 80.5727 673.761 82.249C670.908 83.8897 667.519 84.71 663.596 84.71ZM663.757 76.5246C666.182 76.5246 668.144 75.9717 669.641 74.8661C671.139 73.7604 672.227 72.3516 672.905 70.6396C673.583 68.9277 673.921 67.18 673.921 65.3967C673.921 64.0771 673.725 62.7574 673.333 61.4378C672.976 60.1181 672.388 58.9055 671.567 57.7998C670.783 56.6941 669.748 55.8025 668.465 55.1248C667.181 54.4472 665.593 54.1083 663.703 54.1083C661.313 54.1083 659.37 54.6612 657.872 55.7668C656.374 56.8368 655.268 58.2278 654.555 59.9398C653.877 61.6518 653.538 63.4529 653.538 65.3432C653.538 67.2335 653.895 69.0347 654.608 70.7466C655.321 72.4586 656.427 73.8496 657.925 74.9196C659.459 75.9896 661.403 76.5246 663.757 76.5246ZM704.861 84.71C700.938 84.71 697.585 83.9253 694.803 82.356C692.021 80.7867 689.899 78.5576 688.437 75.6686C687.01 72.7796 686.297 69.3913 686.297 65.5037C686.297 61.5448 687.046 58.103 688.544 55.1783C690.042 52.2537 692.164 49.9889 694.91 48.3839C697.692 46.7433 700.974 45.9229 704.754 45.9229C707.679 45.9229 710.318 46.4401 712.672 47.4744C715.026 48.5087 716.934 50.0424 718.397 52.0754C719.895 54.0727 720.804 56.605 721.125 59.6723H712.833C712.405 57.9246 711.531 56.5693 710.211 55.6063C708.927 54.6077 707.18 54.1083 704.968 54.1083C702.579 54.1083 700.67 54.6612 699.244 55.7668C697.817 56.8368 696.783 58.21 696.141 59.8863C695.534 61.5626 695.231 63.3102 695.231 65.1292C695.231 67.0195 695.552 68.8385 696.194 70.5861C696.872 72.3338 697.924 73.7604 699.351 74.8661C700.813 75.9717 702.739 76.5246 705.129 76.5246C706.555 76.5246 707.804 76.3106 708.874 75.8826C709.979 75.4546 710.889 74.8304 711.602 74.0101C712.315 73.1898 712.815 72.209 713.1 71.0676H721.607C721.321 74.0279 720.376 76.5246 718.771 78.5576C717.202 80.5905 715.187 82.1242 712.726 83.1585C710.3 84.1928 707.679 84.71 704.861 84.71ZM734.546 84.282V54.4293H723.151V46.4044H754.715V54.4293H743.213V84.282H734.546ZM758.757 84.282V46.4044H767.424V59.9398H774.753C776.75 59.9398 778.623 60.1359 780.371 60.5283C782.118 60.8849 783.634 61.5091 784.918 62.4007C786.238 63.2567 787.254 64.4337 787.967 65.9317C788.716 67.394 789.091 69.2487 789.091 71.4956C789.127 73.9923 788.681 76.0787 787.753 77.7551C786.862 79.3957 785.649 80.6975 784.115 81.6605C782.618 82.6235 780.906 83.3012 778.98 83.6935C777.054 84.0858 775.092 84.282 773.095 84.282H758.757ZM767.424 76.3106H773.523C774.521 76.3106 775.431 76.2571 776.251 76.1501C777.107 76.0074 777.856 75.7756 778.498 75.4546C779.14 75.1336 779.622 74.6699 779.943 74.0636C780.299 73.4573 780.478 72.6905 780.478 71.7631C780.478 70.8715 780.335 70.1582 780.05 69.6232C779.764 69.0882 779.336 68.678 778.766 68.3927C778.195 68.0717 777.535 67.8577 776.786 67.7507C776.073 67.6437 775.27 67.5902 774.379 67.5902H767.424V76.3106Z" fill="#23293F"/>
<path fill-rule="evenodd" clip-rule="evenodd" d="M117.498 65.7441C117.498 81.3252 111.308 96.2682 100.291 107.286C89.2732 118.303 58.7491 133.533 58.7491 133.533C58.7491 133.533 28.2249 118.303 17.2075 107.286C6.20998 96.2882 0.110809 81.2574 0 65.7441V0H117.498V65.7441Z" fill="#FA1943"/>
<path fill-rule="evenodd" clip-rule="evenodd" d="M117.498 66.6632C117.498 82.2443 111.308 97.1872 100.291 108.205C89.2732 119.222 58.7491 134.452 58.7491 134.452C58.7491 134.452 28.2249 119.222 17.2075 108.205C6.20998 97.2072 0.110809 82.1765 0 66.6632V0.919067H117.498V66.6632Z" fill="#FA1943"/>
<rect x="16.9688" y="49.4823" width="83.5497" height="9.2833" fill="white"/>
<path d="M95.8758 58.7633C95.8758 48.915 91.9635 39.47 84.9997 32.5062C78.0359 25.5424 68.5909 21.6301 58.7426 21.6301C48.8942 21.6301 39.4493 25.5424 32.4854 32.5062C25.5216 39.47 21.6094 48.915 21.6094 58.7633L58.7426 58.7633H95.8758Z" fill="white"/>
<path d="M40.1793 58.7637C40.1793 63.6879 42.1354 68.4104 45.6173 71.8923C49.0993 75.3742 53.8217 77.3303 58.7459 77.3303C63.6701 77.3303 68.3926 75.3742 71.8745 71.8923C75.3564 68.4104 77.3125 63.6879 77.3125 58.7637L58.7459 58.7637L40.1793 58.7637Z" fill="#FA1943"/>
<path d="M70.3486 14.6689V51.8027H47.1406V49.4814L47.1396 16.9902V14.6689H70.3486Z" fill="white" stroke="#FA1943" stroke-width="4.64165"/>
<path d="M76.1484 49.4822L76.1484 58.7655L41.3361 58.7655L41.3361 49.4822L76.1484 49.4822Z" fill="white"/>
<rect x="16.9688" y="56.4442" width="83.5497" height="4.64165" fill="#FA1943"/>
<path d="M54.6553 95.0845H37.1885V54.4458L38.7744 53.9175L51.6025 49.6411L54.6553 48.6235V95.0845Z" fill="white" stroke="#FA1943" stroke-width="4.63839"/>
<mask id="path-11-outside-1_438_847" maskUnits="userSpaceOnUse" x="47.3359" y="32.0129" width="23" height="66" fill="black">
<rect fill="white" x="47.3359" y="32.0129" width="23" height="66"/>
<path d="M65.1641 92.7659H58.7539V53.9788L52.3398 51.8401V92.7659H52.3359V43.2893L65.1641 39.0129V92.7659Z"/>
</mask>
<path d="M65.1641 92.7659H58.7539V53.9788L52.3398 51.8401V92.7659H52.3359V43.2893L65.1641 39.0129V92.7659Z" fill="white"/>
<path d="M65.1641 92.7659V97.4043H69.8025V92.7659H65.1641ZM58.7539 92.7659H54.1155V97.4043H58.7539V92.7659ZM58.7539 53.9788H63.3923V50.6359L60.2211 49.5785L58.7539 53.9788ZM52.3398 51.8401L53.807 47.4399L47.7015 45.404V51.8401H52.3398ZM52.3398 92.7659V97.4043H56.9782V92.7659H52.3398ZM52.3359 92.7659H47.6975V97.4043H52.3359V92.7659ZM52.3359 43.2893L50.869 38.889L47.6975 39.9462V43.2893H52.3359ZM65.1641 39.0129H69.8025V32.5774L63.6972 34.6126L65.1641 39.0129ZM65.1641 92.7659V88.1275H58.7539V92.7659V97.4043H65.1641V92.7659ZM58.7539 92.7659H63.3923V53.9788H58.7539H54.1155V92.7659H58.7539ZM58.7539 53.9788L60.2211 49.5785L53.807 47.4399L52.3398 51.8401L50.8727 56.2403L57.2867 58.379L58.7539 53.9788ZM52.3398 51.8401H47.7015V92.7659H52.3398H56.9782V51.8401H52.3398ZM52.3398 92.7659V88.1275H52.3359V92.7659V97.4043H52.3398V92.7659ZM52.3359 92.7659H56.9743V43.2893H52.3359H47.6975V92.7659H52.3359ZM52.3359 43.2893L53.8028 47.6896L66.631 43.4133L65.1641 39.0129L63.6972 34.6126L50.869 38.889L52.3359 43.2893ZM65.1641 39.0129H60.5257V92.7659H65.1641H69.8025V39.0129H65.1641Z" fill="#FA1943" mask="url(#path-11-outside-1_438_847)"/>
<path d="M69.2588 95.0845H80.3115V52.3081L78.7256 51.7788L72.3115 49.6411L69.2588 48.6235V95.0845Z" fill="white" stroke="#FA1943" stroke-width="4.63839"/>
<path d="M100.527 65.9084C100.45 67.5662 100.274 69.2258 99.9961 70.8782L92.4395 71.6057C91.9838 73.6014 91.3446 75.5773 90.5156 77.509L96.1982 82.5364C95.8132 83.3092 95.4024 84.0754 94.9648 84.8333C94.5273 85.5911 94.0695 86.3303 93.5928 87.05L86.3965 84.6418C85.1381 86.3254 83.7474 87.8666 82.2471 89.259L85.3955 96.1682C84.0492 97.2805 82.6399 98.3008 81.1797 99.2268L75.5811 94.0969C73.7656 95.1074 71.8671 95.9496 69.9111 96.6165L69.9766 104.206C68.3029 104.673 66.6005 105.035 64.8799 105.291L61.8535 98.3313C59.7986 98.5184 57.7204 98.523 55.6455 98.3372L52.6182 105.301C50.911 105.048 49.2096 104.688 47.5244 104.217L47.5908 96.6233C45.6619 95.9626 43.7652 95.1217 41.9238 94.094L36.3271 99.2219C34.8415 98.2796 33.4346 97.2566 32.1084 96.1633L35.2559 89.2581C33.7181 87.8345 32.3304 86.2881 31.0996 84.6438L23.9014 87.052C22.9383 85.5983 22.0704 84.0903 21.3008 82.5383L26.9873 77.5071C26.1736 75.6 25.532 73.6246 25.0713 71.6067L17.5156 70.8791C17.2378 69.2374 17.0583 67.5774 16.9775 65.9084L31.7344 65.9084C32.3438 74.6508 37.1481 82.9431 45.3086 87.6545C58.3523 95.1851 75.0307 90.7158 82.5615 77.6721C84.7116 73.948 85.8828 69.9277 86.1562 65.9084L100.527 65.9084Z" fill="white"/>
</svg>
