<svg width="100" height="100" viewBox="0 0 100 100" fill="none" xmlns="http://www.w3.org/2000/svg">
<path d="M24.6328 61.543C24.6313 63.3605 24.0909 65.1368 23.08 66.6473C22.0691 68.1578 20.633 69.3347 18.9534 70.0292C17.2737 70.7236 15.4259 70.9045 13.6435 70.549C11.861 70.1935 10.224 69.3175 8.93934 68.0317C7.65468 66.7459 6.78006 65.1082 6.42604 63.3254C6.07202 61.5427 6.2545 59.695 6.95041 58.016C7.64631 56.3369 8.8244 54.9019 10.3357 53.8922C11.8471 52.8826 13.6239 52.3438 15.4414 52.3438H24.6328V61.543ZM29.2656 61.543C29.2656 59.1053 30.234 56.7674 31.9577 55.0437C33.6814 53.3199 36.0193 52.3516 38.457 52.3516C40.8947 52.3516 43.2326 53.3199 44.9563 55.0437C46.6801 56.7674 47.6484 59.1053 47.6484 61.543V84.5586C47.6484 86.9963 46.6801 89.3342 44.9563 91.0579C43.2326 92.7816 40.8947 93.75 38.457 93.75C36.0193 93.75 33.6814 92.7816 31.9577 91.0579C30.234 89.3342 29.2656 86.9963 29.2656 84.5586V61.543ZM38.457 24.6328C36.6395 24.6313 34.8632 24.0909 33.3527 23.08C31.8422 22.0691 30.6653 20.633 29.9709 18.9534C29.2764 17.2737 29.0955 15.4259 29.451 13.6435C29.8065 11.861 30.6825 10.224 31.9683 8.93934C33.2541 7.65468 34.8918 6.78006 36.6746 6.42604C38.4573 6.07202 40.305 6.2545 41.984 6.95041C43.6631 7.64631 45.0981 8.8244 46.1078 10.3357C47.1174 11.8471 47.6562 13.6239 47.6562 15.4414V24.6328H38.457ZM38.457 29.2656C40.8947 29.2656 43.2326 30.234 44.9563 31.9577C46.6801 33.6814 47.6484 36.0193 47.6484 38.457C47.6484 40.8947 46.6801 43.2326 44.9563 44.9563C43.2326 46.6801 40.8947 47.6484 38.457 47.6484H15.4414C13.0037 47.6484 10.6658 46.6801 8.9421 44.9563C7.21838 43.2326 6.25 40.8947 6.25 38.457C6.25 36.0193 7.21838 33.6814 8.9421 31.9577C10.6658 30.234 13.0037 29.2656 15.4414 29.2656H38.457ZM75.3672 38.457C75.3687 36.6395 75.9091 34.8632 76.92 33.3527C77.9309 31.8422 79.367 30.6653 81.0466 29.9709C82.7262 29.2764 84.5741 29.0955 86.3565 29.451C88.139 29.8065 89.776 30.6825 91.0607 31.9683C92.3453 33.2541 93.2199 34.8918 93.574 36.6746C93.928 38.4573 93.7455 40.305 93.0496 41.984C92.3537 43.6631 91.1756 45.0981 89.6643 46.1078C88.1529 47.1174 86.3762 47.6562 84.5586 47.6562H75.3672V38.457ZM70.7344 38.457C70.7344 40.8947 69.766 43.2326 68.0423 44.9563C66.3186 46.6801 63.9807 47.6484 61.543 47.6484C59.1053 47.6484 56.7674 46.6801 55.0437 44.9563C53.3199 43.2326 52.3516 40.8947 52.3516 38.457V15.4414C52.3516 13.0037 53.3199 10.6658 55.0437 8.9421C56.7674 7.21838 59.1053 6.25 61.543 6.25C63.9807 6.25 66.3186 7.21838 68.0423 8.9421C69.766 10.6658 70.7344 13.0037 70.7344 15.4414V38.457ZM61.543 75.3672C63.3605 75.3687 65.1368 75.9091 66.6473 76.92C68.1578 77.9309 69.3347 79.367 70.0292 81.0466C70.7236 82.7262 70.9045 84.5741 70.549 86.3565C70.1935 88.139 69.3175 89.776 68.0317 91.0607C66.7459 92.3453 65.1082 93.2199 63.3254 93.574C61.5427 93.928 59.695 93.7455 58.016 93.0496C56.3369 92.3537 54.9019 91.1756 53.8922 89.6643C52.8826 88.1529 52.3438 86.3762 52.3438 84.5586V75.3672H61.543ZM61.543 70.7344C59.1053 70.7344 56.7674 69.766 55.0437 68.0423C53.3199 66.3186 52.3516 63.9807 52.3516 61.543C52.3516 59.1053 53.3199 56.7674 55.0437 55.0437C56.7674 53.3199 59.1053 52.3516 61.543 52.3516H84.5586C86.9963 52.3516 89.3342 53.3199 91.0579 55.0437C92.7816 56.7674 93.75 59.1053 93.75 61.543C93.75 63.9807 92.7816 66.3186 91.0579 68.0423C89.3342 69.766 86.9963 70.7344 84.5586 70.7344H61.543Z" fill="#23293F"/>
</svg>
