<svg width="100" height="100" viewBox="0 0 100 100" fill="none" xmlns="http://www.w3.org/2000/svg">
<path d="M53.125 50C53.125 54.9445 51.6588 59.778 48.9118 63.8893C46.1647 68.0005 42.2603 71.2048 37.6921 73.097C33.1239 74.9892 28.0973 75.4843 23.2478 74.5196C18.3982 73.555 13.9437 71.174 10.4473 67.6777C6.95103 64.1814 4.57001 59.7268 3.60538 54.8773C2.64075 50.0277 3.13583 45.0011 5.02802 40.4329C6.92021 35.8648 10.1245 31.9603 14.2358 29.2133C18.347 26.4662 23.1805 25 28.125 25C34.7532 25.0072 41.1078 27.6435 45.7947 32.3303C50.4815 37.0172 53.1178 43.3718 53.125 50ZM71.875 25C69.6563 25 65.4688 26.0781 62.375 33.3008C60.4414 37.8125 59.375 43.75 59.375 50C59.375 56.25 60.4414 62.1875 62.375 66.6992C65.4688 73.9219 69.6563 75 71.875 75C74.0938 75 78.2813 73.9219 81.375 66.6992C83.3086 62.1875 84.375 56.25 84.375 50C84.375 43.75 83.3086 37.8125 81.375 33.3008C78.2813 26.0781 74.0938 25 71.875 25ZM93.75 25C92.9212 25 92.1264 25.3292 91.5403 25.9153C90.9542 26.5013 90.625 27.2962 90.625 28.125V71.875C90.625 72.7038 90.9542 73.4987 91.5403 74.0847C92.1264 74.6708 92.9212 75 93.75 75C94.5788 75 95.3737 74.6708 95.9597 74.0847C96.5458 73.4987 96.875 72.7038 96.875 71.875V28.125C96.875 27.2962 96.5458 26.5013 95.9597 25.9153C95.3737 25.3292 94.5788 25 93.75 25Z" fill="#23293F"/>
</svg>
