<svg version="1.0" xmlns="http://www.w3.org/2000/svg"
    width="126.000000pt" height="132.000000pt" viewBox="0 0 126.000000 132.000000"
    preserveAspectRatio="xMidYMid meet">

    <g transform="translate(0.000000,132.000000) scale(0.100000,-0.100000)"
        fill="#555BFF" stroke="none" opacity="0.04">
        <path
            d="M0 975 l0 -345 300 0 300 0 0 -300 0 -300 -300 0 c-260 0 -300 -2
-300 -15 0 -13 77 -15 630 -15 553 0 630 2 630 15 0 13 -40 15 -300 15 l-300
0 0 300 0 300 300 0 300 0 0 345 0 345 -630 0 -630 0 0 -345z m1230 15 l0
-300 -600 0 -600 0 0 300 0 300 600 0 600 0 0 -300z
" />
    </g>
</svg>