<svg xmlns="http://www.w3.org/2000/svg" viewBox="0 0 772 876" preserveAspectRatio="xMidYMid meet">
    <path
        d="M386 858L382.425 865.156L386 866.942L389.575 865.156L386 858ZM386 858L389.578 865.155C389.58 865.154 389.583 865.153 389.586 865.151C389.592 865.148 389.602 865.143 389.614 865.137C389.639 865.124 389.675 865.107 389.723 865.083C389.818 865.035 389.96 864.964 390.146 864.871C390.517 864.684 391.067 864.407 391.785 864.044C393.222 863.318 395.334 862.246 398.043 860.858C403.461 858.083 411.271 854.045 420.857 848.983C440.026 838.862 466.314 824.638 494.788 808.23C551.443 775.583 617.744 733.734 653.288 698.148C724.175 627.176 764 530.919 764 430.553V8H8V430.609C8.71239 530.464 47.9206 627.271 118.712 698.148L120.4 699.821C156.325 735.04 221.442 776.093 277.212 808.23C305.686 824.638 331.974 838.862 351.143 848.983C360.729 854.045 368.539 858.083 373.957 860.858C376.666 862.246 378.778 863.318 380.215 864.044C380.933 864.407 381.483 864.684 381.854 864.871C382.04 864.964 382.182 865.035 382.277 865.083C382.325 865.107 382.361 865.124 382.386 865.137C382.398 865.143 382.408 865.148 382.414 865.151C382.417 865.153 382.42 865.154 382.422 865.155L386 858Z"
        fill="white" />
</svg>