<svg width="970" height="204" viewBox="0 0 970 204" fill="none" xmlns="http://www.w3.org/2000/svg">
<path d="M170.233 84.71C166.31 84.71 162.957 83.9253 160.175 82.356C157.393 80.7867 155.271 78.5576 153.809 75.6686C152.382 72.7796 151.669 69.3913 151.669 65.5037C151.669 61.5448 152.418 58.103 153.916 55.1783C155.414 52.2537 157.536 49.9889 160.282 48.3839C163.064 46.7433 166.346 45.9229 170.126 45.9229C173.051 45.9229 175.69 46.4401 178.044 47.4744C180.398 48.5087 182.306 50.0424 183.769 52.0754C185.267 54.0727 186.176 56.605 186.497 59.6723H178.205C177.777 57.9246 176.903 56.5693 175.583 55.6063C174.299 54.6077 172.552 54.1083 170.34 54.1083C167.951 54.1083 166.043 54.6612 164.616 55.7668C163.189 56.8368 162.155 58.21 161.513 59.8863C160.907 61.5626 160.603 63.3102 160.603 65.1292C160.603 67.0195 160.924 68.8385 161.566 70.5861C162.244 72.3338 163.296 73.7604 164.723 74.8661C166.185 75.9717 168.111 76.5246 170.501 76.5246C171.927 76.5246 173.176 76.3106 174.246 75.8826C175.351 75.4546 176.261 74.8304 176.974 74.0101C177.688 73.1898 178.187 72.209 178.472 71.0676H186.979C186.693 74.0279 185.748 76.5246 184.143 78.5576C182.574 80.5905 180.559 82.1242 178.098 83.1585C175.672 84.1928 173.051 84.71 170.233 84.71ZM199.918 84.282V54.4293H188.523V46.4044H220.088V54.4293H208.585V84.282H199.918ZM224.182 84.282V46.4044H239.537C242.461 46.4044 245.011 46.8324 247.187 47.6884C249.398 48.5444 251.11 49.9354 252.323 51.8614C253.571 53.7873 254.196 56.391 254.196 59.6723C254.196 62.7039 253.536 65.2362 252.216 67.2692C250.896 69.3022 249.095 70.818 246.813 71.8166C244.53 72.7796 241.926 73.2611 239.002 73.2611H232.849V84.282H224.182ZM232.849 65.5572H239.002C241.035 65.5572 242.64 65.0579 243.817 64.0592C245.029 63.0606 245.636 61.5983 245.636 59.6723C245.636 57.9246 245.118 56.6228 244.084 55.7668C243.085 54.8752 241.427 54.4293 239.109 54.4293H232.849V65.5572ZM276.875 84.71C272.987 84.71 269.617 83.9075 266.764 82.3025C263.946 80.6619 261.77 78.3971 260.237 75.5081C258.703 72.5835 257.936 69.213 257.936 65.3967C257.936 61.4734 258.721 58.0673 260.29 55.1783C261.895 52.2537 264.124 49.9889 266.978 48.3839C269.831 46.7433 273.201 45.9229 277.089 45.9229C280.905 45.9229 284.222 46.7254 287.04 48.3304C289.893 49.9354 292.105 52.1824 293.674 55.0713C295.279 57.9246 296.081 61.2951 296.081 65.1827C296.081 68.999 295.297 72.3873 293.727 75.3476C292.158 78.2722 289.929 80.5727 287.04 82.249C284.187 83.8897 280.798 84.71 276.875 84.71ZM277.036 76.5246C279.461 76.5246 281.423 75.9717 282.921 74.8661C284.418 73.7604 285.506 72.3516 286.184 70.6396C286.862 68.9277 287.2 67.18 287.2 65.3967C287.2 64.0771 287.004 62.7574 286.612 61.4378C286.255 60.1181 285.667 58.9055 284.846 57.7998C284.062 56.6941 283.028 55.8025 281.744 55.1248C280.46 54.4472 278.872 54.1083 276.982 54.1083C274.592 54.1083 272.649 54.6612 271.151 55.7668C269.653 56.8368 268.547 58.2278 267.834 59.9398C267.156 61.6518 266.817 63.4529 266.817 65.3432C266.817 67.2335 267.174 69.0347 267.887 70.7466C268.601 72.4586 269.706 73.8496 271.204 74.9196C272.738 75.9896 274.682 76.5246 277.036 76.5246ZM301.61 84.282V46.4044H310.277V69.4627L327.718 46.4044H334.78V84.282H326.059V61.5983L308.672 84.282H301.61ZM318.355 44.5855C316.287 44.5855 314.468 44.2466 312.899 43.569C311.329 42.8913 310.099 41.8748 309.207 40.5195C308.315 39.1285 307.816 37.3809 307.709 35.2766H314.664C314.735 36.3466 315.128 37.1847 315.841 37.791C316.554 38.3617 317.428 38.647 318.462 38.647C319.532 38.647 320.388 38.3617 321.03 37.791C321.672 37.1847 322.011 36.3466 322.047 35.2766H329.055C328.984 37.3809 328.485 39.1285 327.557 40.5195C326.666 41.8748 325.417 42.8913 323.812 43.569C322.243 44.2466 320.424 44.5855 318.355 44.5855ZM342.362 84.282V46.4044H370.93V54.4293H351.029V60.7423H359.053C360.908 60.7423 362.674 60.9028 364.35 61.2238C366.026 61.5091 367.524 62.0441 368.844 62.8287C370.163 63.6134 371.198 64.719 371.947 66.1457C372.696 67.5723 373.07 69.4092 373.07 71.6561C373.07 74.1528 372.607 76.2214 371.679 77.8621C370.788 79.5027 369.575 80.8045 368.041 81.7675C366.543 82.6948 364.867 83.3547 363.012 83.747C361.158 84.1037 359.303 84.282 357.448 84.282H342.362ZM351.029 76.3106H357.823C358.608 76.3106 359.392 76.2571 360.177 76.1501C360.962 76.0431 361.675 75.8469 362.317 75.5616C362.959 75.2763 363.476 74.8483 363.868 74.2776C364.296 73.7069 364.51 72.9579 364.51 72.0306C364.51 71.2103 364.332 70.5505 363.975 70.0512C363.654 69.5518 363.209 69.1773 362.638 68.9277C362.067 68.6423 361.39 68.464 360.605 68.3927C359.856 68.2857 359.053 68.2322 358.197 68.2322H351.029V76.3106ZM378.933 84.282V46.4044H406.86V54.4293H387.6V61.5983H403.811V69.3022H387.6V76.3106H406.86V84.282H378.933ZM426.601 84.71C424.461 84.71 422.428 84.4781 420.502 84.0145C418.612 83.5152 416.9 82.7483 415.367 81.714C413.869 80.6797 412.656 79.3422 411.729 77.7016C410.801 76.0609 410.248 74.0636 410.07 71.7096H418.362C418.541 72.637 418.88 73.4216 419.379 74.0636C419.914 74.6699 420.556 75.1693 421.305 75.5616C422.09 75.9182 422.946 76.1679 423.873 76.3106C424.8 76.4532 425.745 76.5246 426.708 76.5246C427.564 76.5246 428.385 76.4711 429.169 76.3641C429.99 76.2214 430.739 76.0074 431.416 75.7221C432.13 75.4011 432.682 74.9731 433.075 74.4381C433.503 73.8674 433.717 73.1541 433.717 72.2981C433.717 71.5135 433.538 70.8893 433.182 70.4256C432.861 69.9263 432.415 69.5518 431.844 69.3022C431.274 69.0168 430.614 68.8207 429.865 68.7137C429.116 68.6067 428.349 68.5532 427.564 68.5532H421.893V61.4378H426.387C427.243 61.4378 428.028 61.3843 428.741 61.2773C429.455 61.1346 430.079 60.9028 430.614 60.5818C431.185 60.2608 431.613 59.8684 431.898 59.4048C432.183 58.9054 432.326 58.2991 432.326 57.5858C432.326 56.6228 432.005 55.8917 431.363 55.3923C430.757 54.8573 429.99 54.5007 429.062 54.3223C428.135 54.1083 427.19 54.0013 426.227 54.0013C424.943 54.0013 423.802 54.1618 422.803 54.4828C421.804 54.7682 421.002 55.2318 420.395 55.8738C419.789 56.5158 419.415 57.3361 419.272 58.3348H410.98C411.015 56.4445 411.354 54.8217 411.996 53.4663C412.638 52.0754 413.476 50.9162 414.511 49.9889C415.545 49.0259 416.74 48.2412 418.095 47.6349C419.45 47.0286 420.895 46.6006 422.428 46.3509C423.962 46.0656 425.496 45.9229 427.029 45.9229C428.706 45.9229 430.364 46.1191 432.005 46.5114C433.645 46.9038 435.143 47.5279 436.499 48.3839C437.854 49.2042 438.924 50.2921 439.709 51.6474C440.529 53.0027 440.939 54.6433 440.939 56.5693C440.939 57.568 440.797 58.4953 440.511 59.3513C440.262 60.1716 439.851 60.9563 439.281 61.7053C438.746 62.4186 437.997 63.0962 437.034 63.7382C438.995 64.4872 440.369 65.682 441.153 67.3227C441.974 68.9633 442.384 70.8001 442.384 72.8331C442.384 74.8661 441.956 76.6494 441.1 78.1831C440.244 79.681 439.067 80.9115 437.569 81.8745C436.106 82.8375 434.43 83.5508 432.54 84.0145C430.65 84.4781 428.67 84.71 426.601 84.71ZM465.638 84.71C461.75 84.71 458.38 83.9075 455.527 82.3025C452.709 80.6619 450.533 78.3971 449 75.5081C447.466 72.5835 446.699 69.213 446.699 65.3967C446.699 61.4734 447.484 58.0673 449.053 55.1783C450.658 52.2537 452.887 49.9889 455.741 48.3839C458.594 46.7433 461.964 45.9229 465.852 45.9229C469.668 45.9229 472.985 46.7254 475.803 48.3304C478.656 49.9354 480.867 52.1824 482.437 55.0713C484.042 57.9246 484.844 61.2951 484.844 65.1827C484.844 68.999 484.06 72.3873 482.49 75.3476C480.921 78.2722 478.692 80.5727 475.803 82.249C472.95 83.8897 469.561 84.71 465.638 84.71ZM465.798 76.5246C468.224 76.5246 470.185 75.9717 471.683 74.8661C473.181 73.7604 474.269 72.3516 474.947 70.6396C475.625 68.9277 475.963 67.18 475.963 65.3967C475.963 64.0771 475.767 62.7574 475.375 61.4378C475.018 60.1181 474.43 58.9055 473.609 57.7998C472.825 56.6941 471.79 55.8025 470.506 55.1248C469.222 54.4472 467.635 54.1083 465.745 54.1083C463.355 54.1083 461.412 54.6612 459.914 55.7668C458.416 56.8368 457.31 58.2278 456.597 59.9398C455.919 61.6518 455.58 63.4529 455.58 65.3432C455.58 67.2335 455.937 69.0347 456.65 70.7466C457.363 72.4586 458.469 73.8496 459.967 74.9196C461.501 75.9896 463.444 76.5246 465.798 76.5246ZM490.373 84.282V46.4044H522.419V84.282H513.752V54.3758H499.04V84.282H490.373ZM526.122 84.282L541.102 46.4044H550.304L565.123 84.282H555.761L553.674 78.3971H537.571L535.431 84.282H526.122ZM540.299 70.5326H550.946L545.703 55.8738L540.299 70.5326ZM584.488 84.71C580.564 84.71 577.212 83.9253 574.43 82.356C571.648 80.7867 569.526 78.5576 568.063 75.6686C566.637 72.7796 565.923 69.3913 565.923 65.5037C565.923 61.5448 566.672 58.103 568.17 55.1783C569.668 52.2537 571.79 49.9889 574.537 48.3839C577.319 46.7433 580.6 45.9229 584.381 45.9229C587.305 45.9229 589.945 46.4401 592.299 47.4744C594.653 48.5087 596.561 50.0424 598.023 52.0754C599.521 54.0727 600.43 56.605 600.751 59.6723H592.459C592.031 57.9246 591.157 56.5693 589.838 55.6063C588.554 54.6077 586.806 54.1083 584.595 54.1083C582.205 54.1083 580.297 54.6612 578.87 55.7668C577.444 56.8368 576.409 58.21 575.767 59.8863C575.161 61.5626 574.858 63.3102 574.858 65.1292C574.858 67.0195 575.179 68.8385 575.821 70.5861C576.498 72.3338 577.551 73.7604 578.977 74.8661C580.44 75.9717 582.365 76.5246 584.755 76.5246C586.182 76.5246 587.43 76.3106 588.5 75.8826C589.606 75.4546 590.515 74.8304 591.229 74.0101C591.942 73.1898 592.441 72.209 592.727 71.0676H601.233C600.948 74.0279 600.002 76.5246 598.397 78.5576C596.828 80.5905 594.813 82.1242 592.352 83.1585C589.927 84.1928 587.305 84.71 584.488 84.71ZM606.724 84.282V46.4044H615.391V61.5983H630.477V46.4044H639.144V84.282H630.477V69.5697H615.391V84.282H606.724ZM663.596 84.71C659.708 84.71 656.338 83.9075 653.485 82.3025C650.667 80.6619 648.491 78.3971 646.958 75.5081C645.424 72.5835 644.657 69.213 644.657 65.3967C644.657 61.4734 645.442 58.0673 647.011 55.1783C648.616 52.2537 650.845 49.9889 653.699 48.3839C656.552 46.7433 659.922 45.9229 663.81 45.9229C667.626 45.9229 670.943 46.7254 673.761 48.3304C676.614 49.9354 678.826 52.1824 680.395 55.0713C682 57.9246 682.802 61.2951 682.802 65.1827C682.802 68.999 682.018 72.3873 680.448 75.3476C678.879 78.2722 676.65 80.5727 673.761 82.249C670.908 83.8897 667.519 84.71 663.596 84.71ZM663.757 76.5246C666.182 76.5246 668.144 75.9717 669.641 74.8661C671.139 73.7604 672.227 72.3516 672.905 70.6396C673.583 68.9277 673.921 67.18 673.921 65.3967C673.921 64.0771 673.725 62.7574 673.333 61.4378C672.976 60.1181 672.388 58.9055 671.567 57.7998C670.783 56.6941 669.748 55.8025 668.465 55.1248C667.181 54.4472 665.593 54.1083 663.703 54.1083C661.313 54.1083 659.37 54.6612 657.872 55.7668C656.374 56.8368 655.268 58.2278 654.555 59.9398C653.877 61.6518 653.538 63.4529 653.538 65.3432C653.538 67.2335 653.895 69.0347 654.608 70.7466C655.321 72.4586 656.427 73.8496 657.925 74.9196C659.459 75.9896 661.403 76.5246 663.757 76.5246ZM704.861 84.71C700.938 84.71 697.585 83.9253 694.803 82.356C692.021 80.7867 689.899 78.5576 688.437 75.6686C687.01 72.7796 686.297 69.3913 686.297 65.5037C686.297 61.5448 687.046 58.103 688.544 55.1783C690.042 52.2537 692.164 49.9889 694.91 48.3839C697.692 46.7433 700.974 45.9229 704.754 45.9229C707.679 45.9229 710.318 46.4401 712.672 47.4744C715.026 48.5087 716.934 50.0424 718.397 52.0754C719.895 54.0727 720.804 56.605 721.125 59.6723H712.833C712.405 57.9246 711.531 56.5693 710.211 55.6063C708.927 54.6077 707.18 54.1083 704.968 54.1083C702.579 54.1083 700.67 54.6612 699.244 55.7668C697.817 56.8368 696.783 58.21 696.141 59.8863C695.534 61.5626 695.231 63.3102 695.231 65.1292C695.231 67.0195 695.552 68.8385 696.194 70.5861C696.872 72.3338 697.924 73.7604 699.351 74.8661C700.813 75.9717 702.739 76.5246 705.129 76.5246C706.555 76.5246 707.804 76.3106 708.874 75.8826C709.979 75.4546 710.889 74.8304 711.602 74.0101C712.315 73.1898 712.815 72.209 713.1 71.0676H721.607C721.321 74.0279 720.376 76.5246 718.771 78.5576C717.202 80.5905 715.187 82.1242 712.726 83.1585C710.3 84.1928 707.679 84.71 704.861 84.71ZM734.546 84.282V54.4293H723.151V46.4044H754.715V54.4293H743.213V84.282H734.546ZM758.757 84.282V46.4044H767.424V59.9398H774.753C776.75 59.9398 778.623 60.1359 780.371 60.5283C782.118 60.8849 783.634 61.5091 784.918 62.4007C786.238 63.2567 787.254 64.4337 787.967 65.9317C788.716 67.394 789.091 69.2487 789.091 71.4956C789.127 73.9923 788.681 76.0787 787.753 77.7551C786.862 79.3957 785.649 80.6975 784.115 81.6605C782.618 82.6235 780.906 83.3012 778.98 83.6935C777.054 84.0858 775.092 84.282 773.095 84.282H758.757ZM767.424 76.3106H773.523C774.521 76.3106 775.431 76.2571 776.251 76.1501C777.107 76.0074 777.856 75.7756 778.498 75.4546C779.14 75.1336 779.622 74.6699 779.943 74.0636C780.299 73.4573 780.478 72.6905 780.478 71.7631C780.478 70.8715 780.335 70.1582 780.05 69.6232C779.764 69.0882 779.336 68.678 778.766 68.3927C778.195 68.0717 777.535 67.8577 776.786 67.7507C776.073 67.6437 775.27 67.5902 774.379 67.5902H767.424V76.3106Z" fill="white"/>
<path fill-rule="evenodd" clip-rule="evenodd" d="M117.498 65.7441C117.498 81.3252 111.308 96.2682 100.291 107.286C89.2732 118.303 58.7491 133.533 58.7491 133.533C58.7491 133.533 28.2249 118.303 17.2075 107.286C6.20998 96.2882 0.110809 81.2574 0 65.7441V0H117.498V65.7441Z" fill="#FA1943"/>
<path fill-rule="evenodd" clip-rule="evenodd" d="M117.498 66.6632C117.498 82.2443 111.308 97.1872 100.291 108.205C89.2732 119.222 58.7491 134.452 58.7491 134.452C58.7491 134.452 28.2249 119.222 17.2075 108.205C6.20998 97.2072 0.110809 82.1765 0 66.6632V0.919067H117.498V66.6632Z" fill="#FA1943"/>
<rect x="16.9688" y="49.4823" width="83.5497" height="9.2833" fill="white"/>
<path d="M95.8758 58.7633C95.8758 48.915 91.9635 39.47 84.9997 32.5062C78.0359 25.5424 68.5909 21.6301 58.7426 21.6301C48.8942 21.6301 39.4493 25.5424 32.4854 32.5062C25.5216 39.47 21.6094 48.915 21.6094 58.7633L58.7426 58.7633H95.8758Z" fill="white"/>
<path d="M40.1793 58.7637C40.1793 63.6879 42.1354 68.4104 45.6173 71.8923C49.0993 75.3742 53.8217 77.3303 58.7459 77.3303C63.6701 77.3303 68.3926 75.3742 71.8745 71.8923C75.3564 68.4104 77.3125 63.6879 77.3125 58.7637L58.7459 58.7637L40.1793 58.7637Z" fill="#FA1943"/>
<path d="M70.3486 14.6689V51.8027H47.1406V49.4814L47.1396 16.9902V14.6689H70.3486Z" fill="white" stroke="#FA1943" stroke-width="4.64165"/>
<path d="M76.1484 49.4822L76.1484 58.7655L41.3361 58.7655L41.3361 49.4822L76.1484 49.4822Z" fill="white"/>
<rect x="16.9688" y="56.4442" width="83.5497" height="4.64165" fill="#FA1943"/>
<path d="M54.6553 95.0845H37.1885V54.4458L38.7744 53.9175L51.6025 49.6411L54.6553 48.6235V95.0845Z" fill="white" stroke="#FA1943" stroke-width="4.63839"/>
<mask id="path-11-outside-1_438_847" maskUnits="userSpaceOnUse" x="47.3359" y="32.0129" width="23" height="66" fill="black">
<rect fill="white" x="47.3359" y="32.0129" width="23" height="66"/>
<path d="M65.1641 92.7659H58.7539V53.9788L52.3398 51.8401V92.7659H52.3359V43.2893L65.1641 39.0129V92.7659Z"/>
</mask>
<path d="M65.1641 92.7659H58.7539V53.9788L52.3398 51.8401V92.7659H52.3359V43.2893L65.1641 39.0129V92.7659Z" fill="white"/>
<path d="M65.1641 92.7659V97.4043H69.8025V92.7659H65.1641ZM58.7539 92.7659H54.1155V97.4043H58.7539V92.7659ZM58.7539 53.9788H63.3923V50.6359L60.2211 49.5785L58.7539 53.9788ZM52.3398 51.8401L53.807 47.4399L47.7015 45.404V51.8401H52.3398ZM52.3398 92.7659V97.4043H56.9782V92.7659H52.3398ZM52.3359 92.7659H47.6975V97.4043H52.3359V92.7659ZM52.3359 43.2893L50.869 38.889L47.6975 39.9462V43.2893H52.3359ZM65.1641 39.0129H69.8025V32.5774L63.6972 34.6126L65.1641 39.0129ZM65.1641 92.7659V88.1275H58.7539V92.7659V97.4043H65.1641V92.7659ZM58.7539 92.7659H63.3923V53.9788H58.7539H54.1155V92.7659H58.7539ZM58.7539 53.9788L60.2211 49.5785L53.807 47.4399L52.3398 51.8401L50.8727 56.2403L57.2867 58.379L58.7539 53.9788ZM52.3398 51.8401H47.7015V92.7659H52.3398H56.9782V51.8401H52.3398ZM52.3398 92.7659V88.1275H52.3359V92.7659V97.4043H52.3398V92.7659ZM52.3359 92.7659H56.9743V43.2893H52.3359H47.6975V92.7659H52.3359ZM52.3359 43.2893L53.8028 47.6896L66.631 43.4133L65.1641 39.0129L63.6972 34.6126L50.869 38.889L52.3359 43.2893ZM65.1641 39.0129H60.5257V92.7659H65.1641H69.8025V39.0129H65.1641Z" fill="#FA1943" mask="url(#path-11-outside-1_438_847)"/>
<path d="M69.2588 95.0845H80.3115V52.3081L78.7256 51.7788L72.3115 49.6411L69.2588 48.6235V95.0845Z" fill="white" stroke="#FA1943" stroke-width="4.63839"/>
<path d="M100.527 65.9084C100.45 67.5662 100.274 69.2258 99.9961 70.8782L92.4395 71.6057C91.9838 73.6014 91.3446 75.5773 90.5156 77.509L96.1982 82.5364C95.8132 83.3092 95.4024 84.0754 94.9648 84.8333C94.5273 85.5911 94.0695 86.3303 93.5928 87.05L86.3965 84.6418C85.1381 86.3254 83.7474 87.8666 82.2471 89.259L85.3955 96.1682C84.0492 97.2805 82.6399 98.3008 81.1797 99.2268L75.5811 94.0969C73.7656 95.1074 71.8671 95.9496 69.9111 96.6165L69.9766 104.206C68.3029 104.673 66.6005 105.035 64.8799 105.291L61.8535 98.3313C59.7986 98.5184 57.7204 98.523 55.6455 98.3372L52.6182 105.301C50.911 105.048 49.2096 104.688 47.5244 104.217L47.5908 96.6233C45.6619 95.9626 43.7652 95.1217 41.9238 94.094L36.3271 99.2219C34.8415 98.2796 33.4346 97.2566 32.1084 96.1633L35.2559 89.2581C33.7181 87.8345 32.3304 86.2881 31.0996 84.6438L23.9014 87.052C22.9383 85.5983 22.0704 84.0903 21.3008 82.5383L26.9873 77.5071C26.1736 75.6 25.532 73.6246 25.0713 71.6067L17.5156 70.8791C17.2378 69.2374 17.0583 67.5774 16.9775 65.9084L31.7344 65.9084C32.3438 74.6508 37.1481 82.9431 45.3086 87.6545C58.3523 95.1851 75.0307 90.7158 82.5615 77.6721C84.7116 73.948 85.8828 69.9277 86.1562 65.9084L100.527 65.9084Z" fill="white"/>
<path d="M150.168 152.535L160.44 125.336H165.71L175.944 152.535H171.558L169.557 147.072H156.554L154.553 152.535H150.168ZM157.901 143.417H168.211L163.056 129.221L157.901 143.417ZM187.431 152.766C185.302 152.766 183.52 152.33 182.083 151.458C180.673 150.586 179.608 149.38 178.89 147.842C178.198 146.277 177.852 144.482 177.852 142.456C177.852 140.455 178.211 138.673 178.929 137.108C179.673 135.518 180.775 134.274 182.237 133.376C183.725 132.453 185.559 131.991 187.739 131.991C189.226 131.991 190.547 132.248 191.701 132.761C192.856 133.248 193.792 133.979 194.51 134.954C195.254 135.903 195.741 137.095 195.972 138.532H192.009C191.676 137.48 191.111 136.723 190.316 136.262C189.547 135.8 188.636 135.569 187.585 135.569C186.174 135.569 185.046 135.903 184.199 136.569C183.353 137.236 182.738 138.096 182.353 139.147C181.994 140.199 181.814 141.301 181.814 142.456C181.814 143.661 182.007 144.777 182.391 145.803C182.802 146.829 183.417 147.662 184.238 148.303C185.084 148.919 186.187 149.227 187.546 149.227C188.572 149.227 189.521 149.009 190.393 148.573C191.265 148.111 191.83 147.341 192.086 146.264H196.164C195.933 147.752 195.395 148.983 194.548 149.958C193.702 150.907 192.65 151.612 191.394 152.073C190.163 152.535 188.842 152.766 187.431 152.766ZM209.184 152.766C207.055 152.766 205.273 152.33 203.836 151.458C202.426 150.586 201.361 149.38 200.643 147.842C199.951 146.277 199.605 144.482 199.605 142.456C199.605 140.455 199.964 138.673 200.682 137.108C201.426 135.518 202.528 134.274 203.99 133.376C205.478 132.453 207.312 131.991 209.492 131.991C210.979 131.991 212.3 132.248 213.454 132.761C214.608 133.248 215.545 133.979 216.263 134.954C217.007 135.903 217.494 137.095 217.725 138.532H213.762C213.429 137.48 212.864 136.723 212.069 136.262C211.3 135.8 210.389 135.569 209.338 135.569C207.927 135.569 206.799 135.903 205.952 136.569C205.106 137.236 204.49 138.096 204.106 139.147C203.747 140.199 203.567 141.301 203.567 142.456C203.567 143.661 203.759 144.777 204.144 145.803C204.555 146.829 205.17 147.662 205.991 148.303C206.837 148.919 207.94 149.227 209.299 149.227C210.325 149.227 211.274 149.009 212.146 148.573C213.018 148.111 213.583 147.341 213.839 146.264H217.917C217.686 147.752 217.148 148.983 216.301 149.958C215.455 150.907 214.403 151.612 213.147 152.073C211.915 152.535 210.595 152.766 209.184 152.766ZM230.792 152.766C228.689 152.766 226.906 152.343 225.445 151.496C223.983 150.624 222.867 149.406 222.097 147.842C221.354 146.277 220.982 144.469 220.982 142.417C220.982 140.34 221.354 138.532 222.097 136.993C222.867 135.428 223.983 134.21 225.445 133.338C226.906 132.44 228.702 131.991 230.831 131.991C232.934 131.991 234.716 132.44 236.178 133.338C237.64 134.21 238.743 135.428 239.487 136.993C240.23 138.557 240.602 140.378 240.602 142.456C240.602 144.482 240.218 146.277 239.448 147.842C238.704 149.406 237.602 150.624 236.14 151.496C234.703 152.343 232.921 152.766 230.792 152.766ZM230.792 149.227C232.177 149.227 233.293 148.919 234.139 148.303C235.011 147.688 235.652 146.867 236.063 145.841C236.473 144.815 236.678 143.687 236.678 142.456C236.678 141.225 236.473 140.096 236.063 139.07C235.652 138.019 235.011 137.185 234.139 136.569C233.293 135.928 232.177 135.608 230.792 135.608C229.433 135.608 228.317 135.928 227.445 136.569C226.573 137.185 225.932 138.006 225.521 139.032C225.137 140.058 224.944 141.199 224.944 142.456C224.944 143.687 225.137 144.815 225.521 145.841C225.932 146.867 226.573 147.688 227.445 148.303C228.317 148.919 229.433 149.227 230.792 149.227ZM260.404 158.575V152.535H244.669V132.261H248.631V149.034H257.672V132.261H261.712V149.034H264.328V158.575H260.404ZM267.474 152.535V132.261H271.436V146.611C271.616 146.303 271.847 145.969 272.129 145.61C272.411 145.226 272.629 144.918 272.783 144.687L282.054 132.261H285.748V152.535H281.785V138.262C281.58 138.596 281.362 138.929 281.131 139.262C280.9 139.57 280.682 139.852 280.477 140.109L271.206 152.535H267.474ZM296.966 152.766C296.068 152.766 295.196 152.651 294.349 152.42C293.503 152.163 292.746 151.791 292.08 151.304C291.413 150.791 290.874 150.163 290.464 149.419C290.079 148.65 289.887 147.752 289.887 146.726C289.887 145.495 290.118 144.482 290.579 143.687C291.067 142.866 291.708 142.238 292.503 141.802C293.298 141.34 294.208 141.019 295.234 140.84C296.286 140.635 297.376 140.532 298.504 140.532H303.467C303.467 139.532 303.313 138.66 303.006 137.916C302.698 137.147 302.21 136.557 301.544 136.146C300.902 135.71 300.043 135.492 298.966 135.492C298.325 135.492 297.709 135.569 297.119 135.723C296.555 135.851 296.068 136.069 295.657 136.377C295.247 136.685 294.965 137.095 294.811 137.608H290.656C290.81 136.634 291.156 135.8 291.695 135.108C292.234 134.389 292.9 133.8 293.695 133.338C294.491 132.876 295.337 132.543 296.235 132.338C297.158 132.107 298.094 131.991 299.043 131.991C300.992 131.991 302.57 132.376 303.775 133.146C305.006 133.915 305.904 135.018 306.468 136.454C307.032 137.89 307.314 139.596 307.314 141.571V152.535H303.89L303.737 150.035C303.147 150.778 302.467 151.355 301.698 151.766C300.954 152.15 300.171 152.407 299.351 152.535C298.53 152.689 297.735 152.766 296.966 152.766ZM297.658 149.419C298.838 149.419 299.864 149.227 300.736 148.842C301.608 148.432 302.275 147.854 302.736 147.111C303.224 146.341 303.467 145.431 303.467 144.379V143.571H299.851C299.107 143.571 298.376 143.597 297.658 143.648C296.94 143.674 296.286 143.776 295.696 143.956C295.132 144.11 294.683 144.379 294.349 144.764C294.016 145.149 293.849 145.7 293.849 146.418C293.849 147.111 294.029 147.675 294.388 148.111C294.747 148.547 295.221 148.88 295.811 149.111C296.401 149.316 297.017 149.419 297.658 149.419ZM327.804 158.575V152.535H312.069V132.261H316.032V149.034H325.073V132.261H329.112V149.034H331.728V158.575H327.804ZM334.874 152.535V132.261H338.837V146.611C339.016 146.303 339.247 145.969 339.529 145.61C339.811 145.226 340.029 144.918 340.183 144.687L349.455 132.261H353.148V152.535H349.186V138.262C348.98 138.596 348.762 138.929 348.531 139.262C348.301 139.57 348.083 139.852 347.877 140.109L338.606 152.535H334.874ZM356.71 152.535L362.058 144.687C360.647 144.277 359.518 143.584 358.672 142.609C357.851 141.635 357.441 140.391 357.441 138.878C357.441 137.595 357.633 136.531 358.018 135.685C358.403 134.838 358.954 134.171 359.672 133.684C360.39 133.171 361.237 132.812 362.211 132.607C363.212 132.376 364.315 132.261 365.52 132.261H374.138V152.535H370.175V145.341H366.059L361.365 152.535H356.71ZM367.597 141.994H370.175V135.723H365.982C365.289 135.723 364.661 135.762 364.097 135.839C363.558 135.915 363.083 136.069 362.673 136.3C362.288 136.505 361.981 136.813 361.75 137.223C361.545 137.608 361.442 138.134 361.442 138.801C361.442 139.545 361.622 140.134 361.981 140.571C362.365 140.981 362.853 141.289 363.443 141.494C364.032 141.699 364.686 141.84 365.405 141.917C366.148 141.968 366.879 141.994 367.597 141.994ZM389.576 152.535V132.261H393.538V140.801H402.887V132.261H406.85V152.535H402.887V144.302H393.538V152.535H389.576ZM420.63 152.766C418.501 152.766 416.719 152.33 415.282 151.458C413.846 150.586 412.756 149.38 412.012 147.842C411.294 146.277 410.935 144.482 410.935 142.456C410.935 140.404 411.307 138.596 412.051 137.031C412.82 135.467 413.923 134.236 415.359 133.338C416.821 132.44 418.578 131.991 420.63 131.991C422.143 131.991 423.464 132.273 424.592 132.838C425.747 133.376 426.708 134.133 427.478 135.108C428.273 136.057 428.85 137.134 429.209 138.339C429.568 139.545 429.735 140.814 429.709 142.148C429.684 142.43 429.658 142.699 429.632 142.956C429.632 143.212 429.619 143.482 429.594 143.764H414.936C415.013 144.79 415.269 145.726 415.706 146.572C416.167 147.418 416.808 148.098 417.629 148.611C418.45 149.098 419.463 149.342 420.668 149.342C421.335 149.342 421.976 149.265 422.592 149.111C423.233 148.932 423.797 148.662 424.285 148.303C424.798 147.919 425.157 147.431 425.362 146.841H429.363C429.029 148.201 428.427 149.329 427.555 150.227C426.708 151.099 425.67 151.74 424.439 152.15C423.233 152.561 421.964 152.766 420.63 152.766ZM415.013 140.609H425.785C425.759 139.609 425.529 138.724 425.093 137.954C424.657 137.159 424.054 136.544 423.284 136.108C422.515 135.646 421.592 135.415 420.514 135.415C419.335 135.415 418.347 135.659 417.552 136.146C416.783 136.634 416.18 137.275 415.744 138.07C415.334 138.839 415.09 139.686 415.013 140.609ZM433.796 152.535V132.261H447.992V135.8H437.758V152.535H433.796ZM459.856 152.766C457.752 152.766 455.97 152.343 454.508 151.496C453.046 150.624 451.93 149.406 451.161 147.842C450.417 146.277 450.045 144.469 450.045 142.417C450.045 140.34 450.417 138.532 451.161 136.993C451.93 135.428 453.046 134.21 454.508 133.338C455.97 132.44 457.765 131.991 459.894 131.991C461.997 131.991 463.78 132.44 465.242 133.338C466.703 134.21 467.806 135.428 468.55 136.993C469.294 138.557 469.666 140.378 469.666 142.456C469.666 144.482 469.281 146.277 468.512 147.842C467.768 149.406 466.665 150.624 465.203 151.496C463.767 152.343 461.984 152.766 459.856 152.766ZM459.856 149.227C461.24 149.227 462.356 148.919 463.203 148.303C464.075 147.688 464.716 146.867 465.126 145.841C465.536 144.815 465.742 143.687 465.742 142.456C465.742 141.225 465.536 140.096 465.126 139.07C464.716 138.019 464.075 137.185 463.203 136.569C462.356 135.928 461.24 135.608 459.856 135.608C458.496 135.608 457.381 135.928 456.508 136.569C455.636 137.185 454.995 138.006 454.585 139.032C454.2 140.058 454.008 141.199 454.008 142.456C454.008 143.687 454.2 144.815 454.585 145.841C454.995 146.867 455.636 147.688 456.508 148.303C457.381 148.919 458.496 149.227 459.856 149.227ZM482.542 152.766C480.414 152.766 478.631 152.33 477.195 151.458C475.784 150.586 474.72 149.38 474.002 147.842C473.309 146.277 472.963 144.482 472.963 142.456C472.963 140.455 473.322 138.673 474.04 137.108C474.784 135.518 475.887 134.274 477.349 133.376C478.836 132.453 480.67 131.991 482.85 131.991C484.338 131.991 485.658 132.248 486.813 132.761C487.967 133.248 488.903 133.979 489.621 134.954C490.365 135.903 490.852 137.095 491.083 138.532H487.12C486.787 137.48 486.223 136.723 485.428 136.262C484.658 135.8 483.748 135.569 482.696 135.569C481.286 135.569 480.157 135.903 479.311 136.569C478.464 137.236 477.849 138.096 477.464 139.147C477.105 140.199 476.925 141.301 476.925 142.456C476.925 143.661 477.118 144.777 477.503 145.803C477.913 146.829 478.528 147.662 479.349 148.303C480.196 148.919 481.298 149.227 482.658 149.227C483.684 149.227 484.633 149.009 485.505 148.573C486.377 148.111 486.941 147.341 487.197 146.264H491.275C491.044 147.752 490.506 148.983 489.66 149.958C488.813 150.907 487.762 151.612 486.505 152.073C485.274 152.535 483.953 152.766 482.542 152.766ZM495.879 161.422V157.498C497.059 157.498 498.008 157.357 498.726 157.075C499.47 156.793 500.085 156.331 500.573 155.69C501.06 155.074 501.534 154.266 501.996 153.266L493.224 132.261H497.88L504.227 148.688L509.344 132.261H513.768L508.19 148.726C507.908 149.598 507.574 150.547 507.19 151.573C506.831 152.599 506.42 153.625 505.959 154.651C505.523 155.677 505.022 156.626 504.458 157.498C503.894 158.37 503.266 159.075 502.573 159.614C502.009 160.076 501.445 160.435 500.88 160.691C500.316 160.973 499.649 161.166 498.88 161.268C498.11 161.371 497.11 161.422 495.879 161.422ZM514.794 158.575V149.034C515.512 149.034 516.089 148.842 516.525 148.457C516.961 148.072 517.308 147.572 517.564 146.957C517.82 146.341 518.013 145.662 518.141 144.918C518.295 144.148 518.423 143.405 518.526 142.686C518.654 141.532 518.731 140.365 518.757 139.186C518.808 137.98 518.834 136.98 518.834 136.185C518.859 135.544 518.872 134.902 518.872 134.261C518.872 133.594 518.872 132.927 518.872 132.261H533.914V149.034H536.53V158.575H532.645V152.535H518.68V158.575H514.794ZM520.719 149.034H529.913V135.8H522.527C522.527 136.8 522.514 137.903 522.488 139.109C522.463 140.314 522.411 141.455 522.334 142.533C522.283 143.148 522.219 143.841 522.142 144.61C522.065 145.379 521.924 146.149 521.719 146.918C521.514 147.688 521.18 148.393 520.719 149.034ZM546.054 152.766C545.156 152.766 544.284 152.651 543.438 152.42C542.591 152.163 541.835 151.791 541.168 151.304C540.501 150.791 539.962 150.163 539.552 149.419C539.167 148.65 538.975 147.752 538.975 146.726C538.975 145.495 539.206 144.482 539.667 143.687C540.155 142.866 540.796 142.238 541.591 141.802C542.386 141.34 543.297 141.019 544.322 140.84C545.374 140.635 546.464 140.532 547.593 140.532H552.555C552.555 139.532 552.402 138.66 552.094 137.916C551.786 137.147 551.299 136.557 550.632 136.146C549.991 135.71 549.131 135.492 548.054 135.492C547.413 135.492 546.797 135.569 546.208 135.723C545.643 135.851 545.156 136.069 544.746 136.377C544.335 136.685 544.053 137.095 543.899 137.608H539.744C539.898 136.634 540.244 135.8 540.783 135.108C541.322 134.389 541.989 133.8 542.784 133.338C543.579 132.876 544.425 132.543 545.323 132.338C546.246 132.107 547.182 131.991 548.131 131.991C550.08 131.991 551.658 132.376 552.863 133.146C554.094 133.915 554.992 135.018 555.556 136.454C556.12 137.89 556.403 139.596 556.403 141.571V152.535H552.979L552.825 150.035C552.235 150.778 551.555 151.355 550.786 151.766C550.042 152.15 549.26 152.407 548.439 152.535C547.618 152.689 546.823 152.766 546.054 152.766ZM546.746 149.419C547.926 149.419 548.952 149.227 549.824 148.842C550.696 148.432 551.363 147.854 551.824 147.111C552.312 146.341 552.555 145.431 552.555 144.379V143.571H548.939C548.195 143.571 547.464 143.597 546.746 143.648C546.028 143.674 545.374 143.776 544.784 143.956C544.22 144.11 543.771 144.379 543.438 144.764C543.104 145.149 542.938 145.7 542.938 146.418C542.938 147.111 543.117 147.675 543.476 148.111C543.835 148.547 544.31 148.88 544.9 149.111C545.489 149.316 546.105 149.419 546.746 149.419ZM561.157 159.922V132.261H564.928L565.12 135.184C565.838 134.107 566.787 133.312 567.967 132.799C569.147 132.261 570.403 131.991 571.737 131.991C573.738 131.991 575.392 132.453 576.7 133.376C578.008 134.3 578.983 135.544 579.624 137.108C580.265 138.673 580.586 140.442 580.586 142.417C580.586 144.392 580.252 146.162 579.585 147.726C578.944 149.291 577.944 150.522 576.584 151.419C575.251 152.317 573.545 152.766 571.468 152.766C570.467 152.766 569.57 152.663 568.775 152.458C567.98 152.253 567.287 151.958 566.697 151.573C566.107 151.163 565.582 150.727 565.12 150.265V159.922H561.157ZM571.006 149.227C572.391 149.227 573.494 148.919 574.315 148.303C575.135 147.662 575.725 146.829 576.084 145.803C576.443 144.777 576.623 143.661 576.623 142.456C576.623 141.199 576.431 140.058 576.046 139.032C575.687 137.98 575.084 137.147 574.238 136.531C573.417 135.89 572.314 135.569 570.929 135.569C569.672 135.569 568.608 135.89 567.736 136.531C566.864 137.147 566.197 137.98 565.735 139.032C565.299 140.083 565.081 141.225 565.081 142.456C565.081 143.712 565.287 144.866 565.697 145.918C566.133 146.944 566.787 147.752 567.659 148.342C568.557 148.932 569.672 149.227 571.006 149.227ZM593.712 152.766C591.583 152.766 589.8 152.33 588.364 151.458C586.953 150.586 585.889 149.38 585.171 147.842C584.478 146.277 584.132 144.482 584.132 142.456C584.132 140.455 584.491 138.673 585.209 137.108C585.953 135.518 587.056 134.274 588.518 133.376C590.005 132.453 591.839 131.991 594.019 131.991C595.507 131.991 596.828 132.248 597.982 132.761C599.136 133.248 600.072 133.979 600.79 134.954C601.534 135.903 602.021 137.095 602.252 138.532H598.29C597.956 137.48 597.392 136.723 596.597 136.262C595.827 135.8 594.917 135.569 593.865 135.569C592.455 135.569 591.326 135.903 590.48 136.569C589.634 137.236 589.018 138.096 588.633 139.147C588.274 140.199 588.095 141.301 588.095 142.456C588.095 143.661 588.287 144.777 588.672 145.803C589.082 146.829 589.698 147.662 590.518 148.303C591.365 148.919 592.468 149.227 593.827 149.227C594.853 149.227 595.802 149.009 596.674 148.573C597.546 148.111 598.11 147.341 598.367 146.264H602.445C602.214 147.752 601.675 148.983 600.829 149.958C599.982 150.907 598.931 151.612 597.674 152.073C596.443 152.535 595.122 152.766 593.712 152.766ZM611.049 152.535V135.8H604.201V132.261H621.86V135.8H615.012V152.535H611.049ZM624.613 152.535V132.261H633.154C634.026 132.261 634.898 132.325 635.77 132.453C636.667 132.556 637.475 132.786 638.193 133.146C638.937 133.505 639.527 134.03 639.963 134.723C640.425 135.39 640.656 136.275 640.656 137.377C640.656 138.044 640.553 138.647 640.348 139.186C640.143 139.724 639.848 140.199 639.463 140.609C639.104 140.994 638.642 141.327 638.078 141.609C639.36 141.943 640.284 142.545 640.848 143.417C641.438 144.264 641.733 145.277 641.733 146.457C641.733 147.534 641.528 148.457 641.117 149.227C640.707 149.996 640.155 150.624 639.463 151.112C638.77 151.599 637.988 151.958 637.116 152.189C636.244 152.42 635.346 152.535 634.423 152.535H624.613ZM628.652 149.073H633.731C634.449 149.073 635.103 149.009 635.693 148.88C636.308 148.726 636.796 148.457 637.155 148.072C637.539 147.688 637.732 147.162 637.732 146.495C637.732 145.803 637.578 145.277 637.27 144.918C636.962 144.533 636.565 144.264 636.077 144.11C635.59 143.956 635.064 143.866 634.5 143.841C633.936 143.789 633.384 143.764 632.846 143.764H628.652V149.073ZM628.652 140.763H631.653C632.115 140.763 632.641 140.737 633.231 140.686C633.82 140.609 634.385 140.481 634.923 140.301C635.488 140.122 635.936 139.865 636.27 139.532C636.629 139.173 636.808 138.685 636.808 138.07C636.808 137.249 636.578 136.685 636.116 136.377C635.68 136.044 635.154 135.851 634.539 135.8C633.923 135.723 633.32 135.685 632.73 135.685H628.652V140.763ZM654.803 152.766C652.674 152.766 650.892 152.33 649.455 151.458C648.019 150.586 646.929 149.38 646.185 147.842C645.467 146.277 645.108 144.482 645.108 142.456C645.108 140.404 645.48 138.596 646.224 137.031C646.993 135.467 648.096 134.236 649.532 133.338C650.994 132.44 652.751 131.991 654.803 131.991C656.316 131.991 657.637 132.273 658.765 132.838C659.92 133.376 660.881 134.133 661.651 135.108C662.446 136.057 663.023 137.134 663.382 138.339C663.741 139.545 663.908 140.814 663.882 142.148C663.856 142.43 663.831 142.699 663.805 142.956C663.805 143.212 663.792 143.482 663.767 143.764H649.109C649.186 144.79 649.442 145.726 649.878 146.572C650.34 147.418 650.981 148.098 651.802 148.611C652.623 149.098 653.636 149.342 654.841 149.342C655.508 149.342 656.149 149.265 656.765 149.111C657.406 148.932 657.97 148.662 658.458 148.303C658.971 147.919 659.33 147.431 659.535 146.841H663.536C663.202 148.201 662.6 149.329 661.728 150.227C660.881 151.099 659.843 151.74 658.611 152.15C657.406 152.561 656.136 152.766 654.803 152.766ZM649.186 140.609H659.958C659.932 139.609 659.702 138.724 659.266 137.954C658.829 137.159 658.227 136.544 657.457 136.108C656.688 135.646 655.765 135.415 654.687 135.415C653.508 135.415 652.52 135.659 651.725 136.146C650.956 136.634 650.353 137.275 649.917 138.07C649.507 138.839 649.263 139.686 649.186 140.609ZM667.969 152.535V132.261H671.931V140.801H681.28V132.261H685.242V152.535H681.28V144.302H671.931V152.535H667.969ZM690.097 152.535V132.261H694.06V140.801H703.408V132.261H707.371V152.535H703.408V144.302H694.06V152.535H690.097ZM712.226 152.535V132.261H716.265V139.57H719.689C720.895 139.57 721.985 139.673 722.959 139.878C723.934 140.083 724.767 140.429 725.46 140.917C726.178 141.378 726.73 142.02 727.114 142.84C727.499 143.635 727.691 144.648 727.691 145.88C727.691 147.059 727.473 148.085 727.037 148.957C726.627 149.804 726.05 150.496 725.306 151.035C724.562 151.548 723.69 151.932 722.69 152.189C721.715 152.42 720.664 152.535 719.535 152.535H712.226ZM716.265 149.073H717.496C718.317 149.073 719.087 149.047 719.805 148.996C720.548 148.944 721.202 148.829 721.767 148.65C722.357 148.47 722.818 148.175 723.152 147.765C723.511 147.329 723.69 146.739 723.69 145.995C723.69 145.303 723.549 144.764 723.267 144.379C723.011 143.969 722.652 143.661 722.19 143.456C721.754 143.251 721.267 143.122 720.728 143.071C720.189 143.02 719.651 142.994 719.112 142.994H716.265V149.073ZM730.384 152.535V132.261H734.347V152.535H730.384ZM737.2 152.535L744.395 142.186L737.547 132.261H742.279L747.049 139.532L751.666 132.261H756.244L749.434 142.302L756.744 152.535H752.05L746.818 145.149L741.663 152.535H737.2ZM161.132 194.766C159.003 194.766 157.221 194.33 155.785 193.458C154.374 192.586 153.31 191.38 152.591 189.842C151.899 188.277 151.553 186.482 151.553 184.456C151.553 182.455 151.912 180.673 152.63 179.108C153.374 177.518 154.477 176.274 155.938 175.376C157.426 174.453 159.26 173.991 161.44 173.991C162.927 173.991 164.248 174.248 165.402 174.761C166.557 175.248 167.493 175.979 168.211 176.954C168.955 177.903 169.442 179.095 169.673 180.532H165.71C165.377 179.48 164.813 178.723 164.017 178.262C163.248 177.8 162.338 177.569 161.286 177.569C159.875 177.569 158.747 177.903 157.901 178.569C157.054 179.236 156.439 180.096 156.054 181.147C155.695 182.199 155.515 183.301 155.515 184.456C155.515 185.661 155.708 186.777 156.092 187.803C156.503 188.829 157.118 189.662 157.939 190.303C158.785 190.919 159.888 191.227 161.248 191.227C162.273 191.227 163.222 191.009 164.094 190.573C164.966 190.111 165.531 189.341 165.787 188.264H169.865C169.634 189.752 169.096 190.983 168.249 191.958C167.403 192.907 166.351 193.612 165.095 194.073C163.864 194.535 162.543 194.766 161.132 194.766ZM178.47 194.535V177.8H171.622V174.261H189.28V177.8H182.432V194.535H178.47ZM192.033 201.922V174.261H195.804L195.996 177.184C196.714 176.107 197.663 175.312 198.843 174.799C200.023 174.261 201.279 173.991 202.613 173.991C204.614 173.991 206.268 174.453 207.576 175.376C208.884 176.3 209.859 177.544 210.5 179.108C211.141 180.673 211.462 182.442 211.462 184.417C211.462 186.392 211.128 188.162 210.461 189.726C209.82 191.291 208.82 192.522 207.461 193.419C206.127 194.317 204.421 194.766 202.344 194.766C201.344 194.766 200.446 194.663 199.651 194.458C198.856 194.253 198.163 193.958 197.573 193.573C196.983 193.163 196.458 192.727 195.996 192.265V201.922H192.033ZM201.882 191.227C203.267 191.227 204.37 190.919 205.191 190.303C206.011 189.662 206.601 188.829 206.96 187.803C207.32 186.777 207.499 185.661 207.499 184.456C207.499 183.199 207.307 182.058 206.922 181.032C206.563 179.98 205.96 179.147 205.114 178.531C204.293 177.89 203.19 177.569 201.805 177.569C200.549 177.569 199.484 177.89 198.612 178.531C197.74 179.147 197.073 179.98 196.612 181.032C196.176 182.083 195.958 183.225 195.958 184.456C195.958 185.712 196.163 186.866 196.573 187.918C197.009 188.944 197.663 189.752 198.535 190.342C199.433 190.932 200.549 191.227 201.882 191.227ZM216.171 203.422V199.498C217.351 199.498 218.3 199.357 219.018 199.075C219.762 198.793 220.378 198.331 220.865 197.69C221.352 197.074 221.827 196.266 222.288 195.266L213.517 174.261H218.172L224.52 190.688L229.636 174.261H234.061L228.482 190.726C228.2 191.598 227.867 192.547 227.482 193.573C227.123 194.599 226.713 195.625 226.251 196.651C225.815 197.677 225.315 198.626 224.751 199.498C224.186 200.37 223.558 201.075 222.865 201.614C222.301 202.076 221.737 202.435 221.173 202.691C220.608 202.973 219.942 203.166 219.172 203.268C218.403 203.371 217.402 203.422 216.171 203.422ZM236.779 194.535V174.261H240.742V182.686H244.127L249.783 174.261H254.322L247.667 183.879L254.707 194.535H250.09L244.512 186.187H240.742V194.535H236.779ZM262.176 194.535V177.8H255.328V174.261H272.986V177.8H266.138V194.535H262.176ZM277.26 203.422V199.498C278.44 199.498 279.389 199.357 280.107 199.075C280.851 198.793 281.466 198.331 281.953 197.69C282.441 197.074 282.915 196.266 283.377 195.266L274.605 174.261H279.26L285.608 190.688L290.725 174.261H295.149L289.571 190.726C289.289 191.598 288.955 192.547 288.571 193.573C288.212 194.599 287.801 195.625 287.34 196.651C286.904 197.677 286.403 198.626 285.839 199.498C285.275 200.37 284.647 201.075 283.954 201.614C283.39 202.076 282.826 202.435 282.261 202.691C281.697 202.973 281.03 203.166 280.261 203.268C279.491 203.371 278.491 203.422 277.26 203.422ZM297.868 201.922V174.261H301.638L301.83 177.184C302.548 176.107 303.497 175.312 304.677 174.799C305.857 174.261 307.114 173.991 308.447 173.991C310.448 173.991 312.102 174.453 313.41 175.376C314.718 176.3 315.693 177.544 316.334 179.108C316.975 180.673 317.296 182.442 317.296 184.417C317.296 186.392 316.962 188.162 316.296 189.726C315.654 191.291 314.654 192.522 313.295 193.419C311.961 194.317 310.256 194.766 308.178 194.766C307.178 194.766 306.28 194.663 305.485 194.458C304.69 194.253 303.998 193.958 303.408 193.573C302.818 193.163 302.292 192.727 301.83 192.265V201.922H297.868ZM307.716 191.227C309.101 191.227 310.204 190.919 311.025 190.303C311.846 189.662 312.436 188.829 312.795 187.803C313.154 186.777 313.333 185.661 313.333 184.456C313.333 183.199 313.141 182.058 312.756 181.032C312.397 179.98 311.794 179.147 310.948 178.531C310.127 177.89 309.025 177.569 307.64 177.569C306.383 177.569 305.318 177.89 304.446 178.531C303.574 179.147 302.908 179.98 302.446 181.032C302.01 182.083 301.792 183.225 301.792 184.456C301.792 185.712 301.997 186.866 302.407 187.918C302.843 188.944 303.497 189.752 304.369 190.342C305.267 190.932 306.383 191.227 307.716 191.227ZM340.757 194.766C339.424 194.766 338.231 194.574 337.179 194.189C336.128 193.804 335.23 193.266 334.486 192.573C333.743 191.855 333.127 191.021 332.64 190.072C332.152 189.098 331.781 188.046 331.524 186.918C331.293 185.764 331.178 184.545 331.178 183.263C331.178 181.314 331.242 179.506 331.37 177.839C331.498 176.171 331.806 174.684 332.293 173.376C332.781 172.068 333.55 170.978 334.602 170.106C335.653 169.234 337.09 168.593 338.911 168.182C339.937 167.951 340.962 167.759 341.988 167.605C343.04 167.451 344.117 167.31 345.22 167.182C345.835 167.079 346.374 167.002 346.836 166.951C347.297 166.874 347.721 166.81 348.105 166.759C348.516 166.682 348.888 166.618 349.221 166.566V170.375C348.964 170.478 348.67 170.555 348.336 170.606C348.028 170.657 347.708 170.708 347.374 170.76C347.041 170.811 346.708 170.85 346.374 170.875C346.041 170.901 345.707 170.939 345.374 170.991C345.04 171.016 344.72 171.055 344.412 171.106C343.437 171.183 342.424 171.273 341.373 171.375C340.347 171.478 339.372 171.696 338.449 172.029C337.551 172.337 336.807 172.927 336.218 173.799C335.935 174.209 335.692 174.697 335.487 175.261C335.281 175.825 335.128 176.415 335.025 177.031C334.948 177.646 334.897 178.236 334.871 178.8C335.41 178.031 336.051 177.415 336.795 176.954C337.564 176.492 338.372 176.159 339.218 175.953C340.065 175.748 340.873 175.646 341.642 175.646C343.489 175.646 345.053 176.043 346.336 176.838C347.618 177.608 348.593 178.698 349.259 180.108C349.926 181.493 350.26 183.096 350.26 184.917C350.26 186.815 349.875 188.508 349.106 189.996C348.362 191.483 347.272 192.65 345.835 193.496C344.425 194.343 342.732 194.766 340.757 194.766ZM340.796 191.265C342.001 191.265 343.001 190.983 343.796 190.419C344.617 189.854 345.233 189.098 345.643 188.149C346.079 187.2 346.297 186.174 346.297 185.071C346.297 183.994 346.079 183.019 345.643 182.147C345.233 181.25 344.63 180.544 343.835 180.031C343.04 179.518 342.052 179.262 340.873 179.262C339.719 179.262 338.718 179.531 337.872 180.07C337.051 180.608 336.423 181.327 335.987 182.224C335.551 183.122 335.333 184.097 335.333 185.148C335.333 186.2 335.538 187.2 335.948 188.149C336.359 189.098 336.961 189.854 337.756 190.419C338.552 190.983 339.565 191.265 340.796 191.265ZM363.261 194.766C361.132 194.766 359.349 194.33 357.913 193.458C356.477 192.586 355.387 191.38 354.643 189.842C353.925 188.277 353.566 186.482 353.566 184.456C353.566 182.404 353.938 180.596 354.682 179.031C355.451 177.467 356.554 176.236 357.99 175.338C359.452 174.44 361.209 173.991 363.261 173.991C364.774 173.991 366.095 174.273 367.223 174.838C368.377 175.376 369.339 176.133 370.109 177.108C370.904 178.057 371.481 179.134 371.84 180.339C372.199 181.545 372.366 182.814 372.34 184.148C372.314 184.43 372.289 184.699 372.263 184.956C372.263 185.212 372.25 185.482 372.225 185.764H357.567C357.644 186.79 357.9 187.726 358.336 188.572C358.798 189.418 359.439 190.098 360.26 190.611C361.081 191.098 362.094 191.342 363.299 191.342C363.966 191.342 364.607 191.265 365.223 191.111C365.864 190.932 366.428 190.662 366.915 190.303C367.428 189.919 367.788 189.431 367.993 188.841H371.994C371.66 190.201 371.058 191.329 370.186 192.227C369.339 193.099 368.3 193.74 367.069 194.15C365.864 194.561 364.594 194.766 363.261 194.766ZM357.644 182.609H368.416C368.39 181.609 368.159 180.724 367.723 179.954C367.287 179.159 366.685 178.544 365.915 178.108C365.146 177.646 364.222 177.415 363.145 177.415C361.965 177.415 360.978 177.659 360.183 178.146C359.414 178.634 358.811 179.275 358.375 180.07C357.964 180.839 357.721 181.686 357.644 182.609ZM384.121 194.766C383.095 194.766 382.082 194.676 381.081 194.497C380.081 194.292 379.145 193.958 378.273 193.496C377.427 193.035 376.734 192.419 376.196 191.65C375.657 190.88 375.349 189.906 375.272 188.726H379.158C379.26 189.367 379.594 189.88 380.158 190.265C380.722 190.65 381.364 190.932 382.082 191.111C382.8 191.265 383.467 191.342 384.082 191.342C384.749 191.342 385.429 191.278 386.121 191.15C386.814 190.996 387.391 190.714 387.852 190.303C388.34 189.867 388.583 189.252 388.583 188.457C388.583 187.739 388.404 187.2 388.045 186.841C387.686 186.482 387.211 186.238 386.621 186.11C386.031 185.982 385.377 185.918 384.659 185.918H381.081V182.686H383.967C384.454 182.686 384.929 182.647 385.39 182.571C385.852 182.468 386.262 182.327 386.621 182.147C387.006 181.942 387.314 181.673 387.545 181.339C387.775 180.98 387.891 180.532 387.891 179.993C387.891 179.352 387.699 178.852 387.314 178.493C386.955 178.108 386.48 177.839 385.89 177.685C385.3 177.531 384.698 177.454 384.082 177.454C383.467 177.454 382.838 177.518 382.197 177.646C381.556 177.774 381.004 178.018 380.543 178.377C380.081 178.736 379.799 179.236 379.696 179.877H375.849C375.952 178.39 376.414 177.223 377.234 176.377C378.081 175.505 379.119 174.889 380.35 174.53C381.582 174.171 382.813 173.991 384.044 173.991C384.967 173.991 385.878 174.081 386.775 174.261C387.673 174.44 388.494 174.748 389.237 175.184C390.007 175.594 390.61 176.159 391.046 176.877C391.482 177.595 391.7 178.48 391.7 179.531C391.7 180.403 391.494 181.198 391.084 181.916C390.699 182.609 390.084 183.173 389.237 183.609C390.443 184.02 391.289 184.661 391.777 185.533C392.264 186.379 392.507 187.379 392.507 188.534C392.507 189.662 392.264 190.624 391.777 191.419C391.289 192.188 390.648 192.83 389.853 193.343C389.058 193.83 388.16 194.189 387.16 194.42C386.16 194.651 385.147 194.766 384.121 194.766ZM405.454 194.766C403.351 194.766 401.569 194.343 400.107 193.496C398.645 192.624 397.529 191.406 396.76 189.842C396.016 188.277 395.644 186.469 395.644 184.417C395.644 182.34 396.016 180.532 396.76 178.993C397.529 177.428 398.645 176.21 400.107 175.338C401.569 174.44 403.364 173.991 405.493 173.991C407.596 173.991 409.378 174.44 410.84 175.338C412.302 176.21 413.405 177.428 414.149 178.993C414.893 180.557 415.265 182.378 415.265 184.456C415.265 186.482 414.88 188.277 414.11 189.842C413.367 191.406 412.264 192.624 410.802 193.496C409.366 194.343 407.583 194.766 405.454 194.766ZM405.454 191.227C406.839 191.227 407.955 190.919 408.801 190.303C409.673 189.688 410.315 188.867 410.725 187.841C411.135 186.815 411.341 185.687 411.341 184.456C411.341 183.225 411.135 182.096 410.725 181.07C410.315 180.019 409.673 179.185 408.801 178.569C407.955 177.928 406.839 177.608 405.454 177.608C404.095 177.608 402.979 177.928 402.107 178.569C401.235 179.185 400.594 180.006 400.184 181.032C399.799 182.058 399.607 183.199 399.607 184.456C399.607 185.687 399.799 186.815 400.184 187.841C400.594 188.867 401.235 189.688 402.107 190.303C402.979 190.919 404.095 191.227 405.454 191.227ZM419.331 194.535V174.261H436.682V194.535H432.719V177.8H423.294V194.535H419.331ZM447.921 194.766C447.024 194.766 446.152 194.651 445.305 194.42C444.459 194.163 443.702 193.791 443.035 193.304C442.368 192.791 441.83 192.163 441.42 191.419C441.035 190.65 440.842 189.752 440.842 188.726C440.842 187.495 441.073 186.482 441.535 185.687C442.022 184.866 442.663 184.238 443.459 183.802C444.254 183.34 445.164 183.019 446.19 182.84C447.242 182.635 448.332 182.532 449.46 182.532H454.423C454.423 181.532 454.269 180.66 453.961 179.916C453.653 179.147 453.166 178.557 452.499 178.146C451.858 177.71 450.999 177.492 449.922 177.492C449.281 177.492 448.665 177.569 448.075 177.723C447.511 177.851 447.024 178.069 446.613 178.377C446.203 178.685 445.921 179.095 445.767 179.608H441.612C441.766 178.634 442.112 177.8 442.651 177.108C443.189 176.389 443.856 175.8 444.651 175.338C445.446 174.876 446.293 174.543 447.19 174.338C448.114 174.107 449.05 173.991 449.999 173.991C451.948 173.991 453.525 174.376 454.731 175.146C455.962 175.915 456.859 177.018 457.424 178.454C457.988 179.89 458.27 181.596 458.27 183.571V194.535H454.846L454.692 192.035C454.102 192.778 453.423 193.355 452.653 193.766C451.909 194.15 451.127 194.407 450.306 194.535C449.486 194.689 448.691 194.766 447.921 194.766ZM448.614 191.419C449.794 191.419 450.819 191.227 451.691 190.842C452.563 190.432 453.23 189.854 453.692 189.111C454.179 188.341 454.423 187.431 454.423 186.379V185.571H450.807C450.063 185.571 449.332 185.597 448.614 185.648C447.896 185.674 447.242 185.776 446.652 185.956C446.087 186.11 445.639 186.379 445.305 186.764C444.972 187.149 444.805 187.7 444.805 188.418C444.805 189.111 444.985 189.675 445.344 190.111C445.703 190.547 446.177 190.88 446.767 191.111C447.357 191.316 447.973 191.419 448.614 191.419ZM471.835 194.766C469.706 194.766 467.924 194.33 466.487 193.458C465.077 192.586 464.012 191.38 463.294 189.842C462.602 188.277 462.255 186.482 462.255 184.456C462.255 182.455 462.615 180.673 463.333 179.108C464.076 177.518 465.179 176.274 466.641 175.376C468.129 174.453 469.963 173.991 472.143 173.991C473.63 173.991 474.951 174.248 476.105 174.761C477.259 175.248 478.196 175.979 478.914 176.954C479.657 177.903 480.145 179.095 480.376 180.532H476.413C476.08 179.48 475.515 178.723 474.72 178.262C473.951 177.8 473.04 177.569 471.989 177.569C470.578 177.569 469.45 177.903 468.603 178.569C467.757 179.236 467.141 180.096 466.757 181.147C466.398 182.199 466.218 183.301 466.218 184.456C466.218 185.661 466.41 186.777 466.795 187.803C467.205 188.829 467.821 189.662 468.642 190.303C469.488 190.919 470.591 191.227 471.95 191.227C472.976 191.227 473.925 191.009 474.797 190.573C475.669 190.111 476.233 189.341 476.49 188.264H480.568C480.337 189.752 479.798 190.983 478.952 191.958C478.106 192.907 477.054 193.612 475.797 194.073C474.566 194.535 473.246 194.766 471.835 194.766ZM484.402 194.535V174.261H488.365V182.801H497.713V174.261H501.676V194.535H497.713V186.302H488.365V194.535H484.402ZM515.572 194.766C513.468 194.766 511.686 194.343 510.224 193.496C508.762 192.624 507.646 191.406 506.877 189.842C506.133 188.277 505.761 186.469 505.761 184.417C505.761 182.34 506.133 180.532 506.877 178.993C507.646 177.428 508.762 176.21 510.224 175.338C511.686 174.44 513.481 173.991 515.61 173.991C517.713 173.991 519.496 174.44 520.958 175.338C522.42 176.21 523.522 177.428 524.266 178.993C525.01 180.557 525.382 182.378 525.382 184.456C525.382 186.482 524.997 188.277 524.228 189.842C523.484 191.406 522.381 192.624 520.919 193.496C519.483 194.343 517.7 194.766 515.572 194.766ZM515.572 191.227C516.957 191.227 518.072 190.919 518.919 190.303C519.791 189.688 520.432 188.867 520.842 187.841C521.253 186.815 521.458 185.687 521.458 184.456C521.458 183.225 521.253 182.096 520.842 181.07C520.432 180.019 519.791 179.185 518.919 178.569C518.072 177.928 516.957 177.608 515.572 177.608C514.212 177.608 513.097 177.928 512.225 178.569C511.353 179.185 510.711 180.006 510.301 181.032C509.916 182.058 509.724 183.199 509.724 184.456C509.724 185.687 509.916 186.815 510.301 187.841C510.711 188.867 511.353 189.688 512.225 190.303C513.097 190.919 514.212 191.227 515.572 191.227ZM538.258 194.766C536.13 194.766 534.347 194.33 532.911 193.458C531.5 192.586 530.436 191.38 529.718 189.842C529.025 188.277 528.679 186.482 528.679 184.456C528.679 182.455 529.038 180.673 529.756 179.108C530.5 177.518 531.603 176.274 533.065 175.376C534.552 174.453 536.386 173.991 538.566 173.991C540.054 173.991 541.375 174.248 542.529 174.761C543.683 175.248 544.619 175.979 545.337 176.954C546.081 177.903 546.568 179.095 546.799 180.532H542.837C542.503 179.48 541.939 178.723 541.144 178.262C540.374 177.8 539.464 177.569 538.412 177.569C537.002 177.569 535.873 177.903 535.027 178.569C534.18 179.236 533.565 180.096 533.18 181.147C532.821 182.199 532.642 183.301 532.642 184.456C532.642 185.661 532.834 186.777 533.219 187.803C533.629 188.829 534.245 189.662 535.065 190.303C535.912 190.919 537.014 191.227 538.374 191.227C539.4 191.227 540.349 191.009 541.221 190.573C542.093 190.111 542.657 189.341 542.913 188.264H546.991C546.761 189.752 546.222 190.983 545.376 191.958C544.529 192.907 543.478 193.612 542.221 194.073C540.99 194.535 539.669 194.766 538.258 194.766ZM555.596 194.535V177.8H548.748V174.261H566.407V177.8H559.559V194.535H555.596ZM569.16 194.535V174.261H573.122V188.611C573.302 188.303 573.533 187.969 573.815 187.61C574.097 187.226 574.315 186.918 574.469 186.687L583.74 174.261H587.434V194.535H583.471V180.262C583.266 180.596 583.048 180.929 582.817 181.262C582.586 181.57 582.368 181.852 582.163 182.109L572.892 194.535H569.16Z" fill="#FA1943"/>
</svg>
