<svg width="100" height="100" viewBox="0 0 100 100" fill="none" xmlns="http://www.w3.org/2000/svg">
<path d="M100 28.125C100 30.2083 99.7559 32.3079 99.2676 34.4238C98.7793 36.5397 98.1283 38.6556 97.3145 40.7715C96.5006 42.8874 95.5892 44.9056 94.5801 46.8262C93.571 48.7467 92.5293 50.6185 91.4551 52.4414C90.446 54.1341 89.4206 55.6966 88.3789 57.1289C87.3372 58.5612 86.2956 59.9447 85.2539 61.2793C84.2122 62.6139 83.252 63.9811 82.373 65.3809C81.4941 66.7806 80.6966 68.2129 79.9805 69.6777C79.2643 71.1426 78.7272 72.7865 78.3691 74.6094C78.0111 76.4323 77.7995 78.418 77.7344 80.5664C77.7344 81.7383 77.7832 82.8939 77.8809 84.0332C77.9785 85.1725 78.1576 86.3281 78.418 87.5H66.4551C65.5111 86.2956 64.3717 84.9935 63.0371 83.5938C61.7025 82.194 60.2376 80.8919 58.6426 79.6875C57.0475 78.4831 55.4362 77.4902 53.8086 76.709C52.181 75.9277 50.5371 75.5208 48.877 75.4883C47.2819 75.4883 45.8822 75.8626 44.6777 76.6113C43.4733 77.36 42.4316 78.3366 41.5527 79.541C40.6738 80.7454 39.9414 82.0312 39.3555 83.3984C38.7695 84.7656 38.265 86.1328 37.8418 87.5H28.6621C28.5319 86.5234 28.304 85.4492 27.9785 84.2773C27.653 83.1055 27.1647 81.9987 26.5137 80.957C25.8626 79.9154 25.1139 79.0527 24.2676 78.3691C23.4212 77.6855 22.3633 77.3275 21.0938 77.2949C19.8568 77.2949 18.7826 77.6367 17.8711 78.3203C16.9596 79.0039 16.1458 79.8665 15.4297 80.9082C14.7135 81.9499 14.1602 83.0566 13.7695 84.2285C13.3789 85.4004 13.0534 86.4909 12.793 87.5H0.830078C0.504557 85.7096 0.292969 83.903 0.195312 82.0801C0.0976562 80.2572 0.0325521 78.418 0 76.5625C0 74.2513 0.113932 71.8913 0.341797 69.4824C0.569661 67.0736 0.960286 64.7135 1.51367 62.4023C2.06706 60.0911 2.79948 57.8613 3.71094 55.7129C4.6224 53.5645 5.76172 51.5788 7.12891 49.7559C8.49609 47.9329 10.1074 46.2891 11.9629 44.8242C13.8184 43.3594 15.9668 42.2038 18.4082 41.3574C19.1243 43.0176 19.8893 44.6452 20.7031 46.2402C21.5169 47.8353 22.4284 49.3815 23.4375 50.8789C24.2513 52.1484 25.293 53.1738 26.5625 53.9551C27.832 54.7363 29.248 55.1432 30.8105 55.1758C32.2428 55.1758 33.61 54.8503 34.9121 54.1992C36.2142 53.5482 37.4349 52.7344 38.5742 51.7578C39.7135 50.7812 40.7715 49.707 41.748 48.5352C42.7246 47.3633 43.571 46.224 44.2871 45.1172C43.5384 45.931 42.6595 46.7936 41.6504 47.7051C40.6413 48.6165 39.5345 49.4466 38.3301 50.1953C37.1257 50.944 35.9049 51.5788 34.668 52.0996C33.431 52.6204 32.2591 52.8809 31.1523 52.8809C29.8828 52.8809 28.8249 52.5879 27.9785 52.002C27.1322 51.416 26.3672 50.6022 25.6836 49.5605C25.3906 49.0723 25 48.4538 24.5117 47.7051C24.0234 46.9564 23.5189 46.11 22.998 45.166C22.4772 44.222 21.9401 43.2617 21.3867 42.2852C20.8333 41.3086 20.3451 40.3646 19.9219 39.4531C19.4987 38.5417 19.1569 37.7116 18.8965 36.9629C18.6361 36.2142 18.4896 35.5957 18.457 35.1074C18.457 34.0007 18.9128 33.0078 19.8242 32.1289C20.7357 31.25 21.9238 30.485 23.3887 29.834C24.8535 29.1829 26.4811 28.6133 28.2715 28.125C30.0618 27.6367 31.8197 27.2461 33.5449 26.9531C35.2702 26.6602 36.8652 26.4486 38.3301 26.3184C39.7949 26.1882 40.9342 26.1068 41.748 26.0742C46.2728 26.0742 50.472 26.7415 54.3457 28.0762C58.2194 29.4108 62.0117 31.3477 65.7227 33.8867C67.3828 35.026 69.1081 35.9538 70.8984 36.6699C72.6888 37.3861 74.6094 37.7604 76.6602 37.793C78.418 37.793 80.1595 37.4349 81.8848 36.7188C83.61 36.0026 85.1725 35.0423 86.5723 33.8379C87.972 32.6335 89.0951 31.2012 89.9414 29.541C90.7878 27.8809 91.2272 26.123 91.2598 24.2676C91.2598 23.0957 91.0319 22.0052 90.5762 20.9961C90.1204 19.987 89.502 19.1081 88.7207 18.3594C87.9395 17.6107 87.0443 17.0085 86.0352 16.5527C85.026 16.097 83.9355 15.8691 82.7637 15.8691C82.015 15.8691 81.3477 15.9505 80.7617 16.1133C80.1758 16.276 79.6224 16.4714 79.1016 16.6992C78.5807 16.9271 78.1087 17.1224 77.6855 17.2852C77.2624 17.4479 76.888 17.5456 76.5625 17.5781C76.0417 17.5781 75.6348 17.3665 75.3418 16.9434C75.2441 16.8132 75.0977 16.569 74.9023 16.2109C74.707 15.8529 74.4954 15.446 74.2676 14.9902C74.0397 14.5345 73.8444 14.1113 73.6816 13.7207C73.5189 13.3301 73.4375 13.0371 73.4375 12.8418C73.4375 12.0605 73.7956 11.3932 74.5117 10.8398C75.2279 10.2865 76.0579 9.83073 77.002 9.47266C77.946 9.11458 78.9225 8.85417 79.9316 8.69141C80.9408 8.52865 81.722 8.44727 82.2754 8.44727C85.0423 8.44727 87.5163 8.9681 89.6973 10.0098C91.8783 11.0514 93.75 12.4837 95.3125 14.3066C96.875 16.1296 98.0306 18.2292 98.7793 20.6055C99.528 22.9818 99.9349 25.4883 100 28.125ZM61.7676 46.582C61.7676 47.526 61.9466 48.3724 62.3047 49.1211C62.6628 49.8698 63.1348 50.5371 63.7207 51.123C64.3066 51.709 65.0228 52.1322 65.8691 52.3926C66.7155 52.653 67.5944 52.7995 68.5059 52.832C69.1244 52.832 69.7917 52.7181 70.5078 52.4902C71.224 52.2624 71.8913 51.9531 72.5098 51.5625C73.1283 51.1719 73.6816 50.6836 74.1699 50.0977C74.6582 49.5117 74.9674 48.9095 75.0977 48.291C74.5443 48.0957 73.9746 47.9004 73.3887 47.7051C72.8027 47.5098 72.2331 47.3307 71.6797 47.168C71.7122 47.3307 71.7448 47.4609 71.7773 47.5586C71.8099 47.6562 71.8262 47.7865 71.8262 47.9492C71.8262 48.8932 71.5006 49.6582 70.8496 50.2441C70.1986 50.8301 69.401 51.1393 68.457 51.1719C67.5781 51.1719 66.8131 50.8789 66.1621 50.293C65.5111 49.707 65.1855 48.9583 65.1855 48.0469C65.1855 47.526 65.2995 47.054 65.5273 46.6309C65.7552 46.2077 66.097 45.8333 66.5527 45.5078L62.1582 44.0918C61.9954 44.4824 61.8978 44.8893 61.8652 45.3125C61.8327 45.7357 61.8001 46.1589 61.7676 46.582Z" fill="#23293F"/>
</svg>
